<svg aria-hidden="true" style="position: absolute; width: 0; height: 0; overflow: hidden;" version="1.1" xmlns="http://www.w3.org/2000/svg" xmlns:xlink="http://www.w3.org/1999/xlink">
<defs>
<symbol id="icon-clarity_close-line" viewBox="0 0 32 32">
<path d="M17.253 16l7.369-7.369c0.146-0.17 0.222-0.389 0.213-0.613s-0.101-0.436-0.26-0.594-0.37-0.251-0.594-0.26c-0.224-0.009-0.442 0.067-0.613 0.213l-7.369 7.369-7.369-7.378c-0.167-0.167-0.394-0.261-0.631-0.261s-0.464 0.094-0.631 0.261c-0.167 0.167-0.261 0.394-0.261 0.631s0.094 0.464 0.261 0.631l7.378 7.369-7.378 7.369c-0.093 0.080-0.169 0.178-0.222 0.288s-0.083 0.23-0.088 0.353 0.016 0.244 0.061 0.358c0.045 0.114 0.112 0.218 0.199 0.304s0.19 0.154 0.304 0.199 0.236 0.065 0.359 0.061c0.122-0.005 0.243-0.035 0.353-0.088s0.208-0.129 0.288-0.222l7.378-7.369 7.369 7.369c0.17 0.146 0.389 0.222 0.613 0.213s0.436-0.101 0.594-0.26 0.251-0.371 0.26-0.594c0.009-0.224-0.067-0.442-0.213-0.613l-7.369-7.369z"></path>
</symbol>
<symbol id="icon-menu-black" viewBox="0 0 60 32">
<path d="M2 0h56c1.105 0 2 0.895 2 2s-0.895 2-2 2h-56c-1.105 0-2-0.895-2-2s0.895-2 2-2z"></path>
<path d="M2 14h56c1.105 0 2 0.895 2 2s-0.895 2-2 2h-56c-1.105 0-2-0.895-2-2s0.895-2 2-2z"></path>
<path d="M2 28h56c1.105 0 2 0.895 2 2s-0.895 2-2 2h-56c-1.105 0-2-0.895-2-2s0.895-2 2-2z"></path>
</symbol>
<symbol id="icon-ep_arrow-up" viewBox="0 0 32 32">
<path d="M16.724 21.241l10.62-11.146c0.177-0.186 0.276-0.433 0.276-0.69s-0.099-0.504-0.276-0.69l-0.012-0.012c-0.086-0.090-0.189-0.163-0.304-0.212s-0.238-0.075-0.363-0.075c-0.125 0-0.248 0.025-0.363 0.075s-0.218 0.121-0.304 0.212l-10 10.496-9.996-10.496c-0.086-0.090-0.189-0.162-0.304-0.212s-0.238-0.075-0.363-0.075c-0.125 0-0.248 0.025-0.363 0.075s-0.218 0.121-0.304 0.212l-0.012 0.012c-0.177 0.186-0.276 0.433-0.276 0.69s0.099 0.504 0.276 0.69l10.62 11.146c0.093 0.098 0.206 0.176 0.33 0.229s0.259 0.081 0.394 0.081c0.135 0 0.269-0.027 0.394-0.081s0.237-0.131 0.33-0.229z"></path>
</symbol>
<symbol id="icon-circle-up" viewBox="0 0 32 32">
<path d="M0 16c0 8.837 7.163 16 16 16s16-7.163 16-16-7.163-16-16-16-16 7.163-16 16zM29 16c0 7.18-5.82 13-13 13s-13-5.82-13-13 5.82-13 13-13 13 5.82 13 13z"></path>
<path d="M22.086 20.914l2.829-2.829-8.914-8.914-8.914 8.914 2.828 2.828 6.086-6.086z"></path>
</symbol>
<symbol id="icon-sort-alpha-asc" viewBox="0 0 14 32">
<path d="M5 8v24h4v-24h5l-7-7-7 7h5z"></path>
<path d="M-14 0h8c0.369 0 0.708 0.203 0.882 0.528s0.155 0.72-0.050 1.027l-6.963 10.445h6.131c0.552 0 1 0.448 1 1s-0.448 1-1 1h-8c-0.369 0-0.708-0.203-0.882-0.528s-0.155-0.72 0.050-1.027l6.963-10.445h-6.131c-0.552 0-1-0.448-1-1s0.448-1 1-1z"></path>
<path d="M-16.894 19.447l6 12c0.169 0.339 0.516 0.553 0.894 0.553s0.725-0.214 0.895-0.553l6-12c0.247-0.494 0.047-1.095-0.447-1.342-0.144-0.072-0.296-0.106-0.446-0.106-0.367 0-0.72 0.203-0.895 0.553l-1.724 3.447h-6.764l-1.724-3.447c-0.247-0.494-0.848-0.694-1.342-0.447s-0.694 0.848-0.447 1.342zM-7.618 24l-2.382 4.764-2.382-4.764h4.764z"></path>
</symbol>
</symbol>
<symbol id="icon-search" viewBox="0 0 32 32">
<path d="M31.008 27.231l-7.58-6.447c-0.784-0.705-1.622-1.029-2.299-0.998 1.789-2.096 2.87-4.815 2.87-7.787 0-6.627-5.373-12-12-12s-12 5.373-12 12 5.373 12 12 12c2.972 0 5.691-1.081 7.787-2.87-0.031 0.677 0.293 1.515 0.998 2.299l6.447 7.58c1.104 1.226 2.907 1.33 4.007 0.23s0.997-2.903-0.23-4.007zM12 20c-4.418 0-8-3.582-8-8s3.582-8 8-8 8 3.582 8 8-3.582 8-8 8z"></path>
</symbol>
</defs>
</svg>
