<!-- Generated by IcoMoon.io -->
<svg version="1.1" xmlns="http://www.w3.org/2000/svg" width="224" height="512" viewBox="0 0 224 512">
<title></title>
<g id="icomoon-ignore">
</g>
<path d="M80.004 128v383.998h63.999v-383.998h80l-111.999-111.999-111.999 111.999h79.999z"></path>
<path d="M-223.995 0.001h127.999c5.9 0 11.322 3.248 14.107 8.45 2.783 5.202 2.479 11.515-0.795 16.425l-111.415 167.125h98.103c8.837 0 16 7.165 16 16s-7.165 16-16 16h-128c-5.9 0-11.322-3.248-14.107-8.45-2.783-5.202-2.479-11.515 0.795-16.425l111.415-167.125h-98.102c-8.837 0-16-7.165-16-16s7.165-16 16-16z"></path>
<path d="M-270.306 311.157l96 191.999c2.71 5.421 8.251 8.845 14.311 8.845 6.061 0 11.601-3.424 14.312-8.845l95.998-191.999c3.952-7.903 0.748-17.515-7.155-21.466-2.297-1.149-4.738-1.693-7.144-1.693-5.869 0-11.52 3.242-14.322 8.849l-27.578 55.155h-108.223l-27.578-55.155c-3.951-7.903-13.562-11.105-21.466-7.155s-11.108 13.562-7.156 21.465zM-121.885 384.002l-38.11 76.223-38.112-76.222h76.222z"></path>
</svg>
