<svg aria-hidden="true" style="position: absolute; width: 0; height: 0; overflow: hidden;" version="1.1" xmlns="http://www.w3.org/2000/svg" xmlns:xlink="http://www.w3.org/1999/xlink">
<defs>
<symbol id="icon-photo" viewBox="0 0 29 32">
<path fill="#fd5103" style="fill: var(--color1, #fd5103)" d="M27.030 8.196c-2.505-3.691-8.801-9.54-18.378-5.771s-8.485 10.301-8.058 12.829c0.427 2.528 0.994 5.807 4.748 8.258s7.955 2.52 12.447 2.307c4.492-0.213 9.657-2.803 10.647-6.306s1.098-7.625-1.407-11.316z"></path>
<path fill="#f2f0eb" style="fill: var(--color2, #f2f0eb)" d="M12.92 8.342c0 0-0.976 0.619-0.931 0.729s0.288 0.486 0.288 0.486 0.697 1.342 1.597 1.592c1.197 0.332 1.663-0.332 2.040-1.017s0.444-5.327 0.311-5.394c-0.133-0.066-0.843 0.309-1.065 1.238s-0.399 2.763-0.532 2.874-1.264-0.221-1.264-0.221l-0.444-0.287z"></path>
<path fill="#f5aa8a" style="fill: var(--color3, #f5aa8a)" d="M10.281 8.010c0 0-0.739-0.118-0.739 0.118s0.236 0.324 0.384 0.324 0.148 0.147 0.414 0.147c0.266 0 0.503 0.088 0.887 0.059s0.798 0.265 0.798 0.265 0.148 0.332 0.673-0.007c0.144-0.093 0.266-0.221 0.244-0.376s-0.191-0.681-0.325-0.796c-0.207-0.177-2.336 0.265-2.336 0.265z"></path>
<path fill="#93b3c5" style="fill: var(--color4, #93b3c5)" d="M11.013 8.37c1.582 0 2.865-0.261 2.865-0.583s-1.283-0.583-2.865-0.583c-1.582 0-2.865 0.261-2.865 0.583s1.283 0.583 2.865 0.583z"></path>
<path fill="#a1c4da" style="fill: var(--color5, #a1c4da)" d="M12.92 5.652c-0.855-0.677-1.907-0.59-1.907-0.59s-1.052-0.087-1.907 0.59c-0.855 0.677-0.789 2.076-0.789 2.076s0.541 0.437 2.697 0.437c2.156 0 2.697-0.437 2.697-0.437s0.066-1.399-0.789-2.076z"></path>
<path fill="#b3d9ed" style="fill: var(--color6, #b3d9ed)" d="M12.28 5.502c-0.366-0.255-0.739-0.382-1.068-0.442-0.053-0.002-0.098-0.001-0.13-0.001 0.226 0.107 0.459 0.256 0.679 0.465 0.876 0.83 0.809 2.543 0.809 2.543s-0 0-0.001 0.001c0.451-0.066 0.739-0.153 0.913-0.223-0.069-0.423-0.347-1.747-1.202-2.342z"></path>
<path fill="#b3d9ed" style="fill: var(--color6, #b3d9ed)" d="M11.086 5.059c-0.047 0.001-0.074 0.003-0.074 0.003s-0.009-0.001-0.026-0.002c0.073 0.101 0.145 0.215 0.213 0.348 0.427 0.829 0.406 2.231 0.381 2.745 0.144-0.006 0.277-0.014 0.403-0.023-0.015-0.577-0.104-1.942-0.583-2.682-0.103-0.159-0.209-0.286-0.315-0.39z"></path>
<path fill="#93b3c5" style="fill: var(--color4, #93b3c5)" d="M11.181 4.963c0-0.234-0.032-0.425-0.169-0.425s-0.169 0.19-0.169 0.425c0 0.093-0.003 0.178 0.005 0.248 0.053 0.008 0.108 0.013 0.164 0.013s0.112-0.005 0.164-0.013c0.008-0.070 0.005-0.155 0.005-0.248z"></path>
<path fill="#63363b" style="fill: var(--color7, #63363b)" d="M15.412 25.060c0 0 0.293 0.106 0.69 0.136s0.959-0.102 0.959-0.102 0.153 0.866 0.091 1.378c-0.031 0.257-0.199 0.303-0.536 0.519-0.211 0.136-0.5 0.43-0.831 0.602-0.351 0.182-1.255 0.179-1.614 0.008-0.755-0.358-0.48-0.752-0.036-1.072 0.157-0.113 0.431-0.354 0.569-0.52 0.406-0.489 0.708-0.948 0.708-0.948z"></path>
<path fill="#363b4e" style="fill: var(--color8, #363b4e)" d="M14.981 17.613c-0.014-0.91-0.11-3.298 0.055-3.67 0.142-0.321 1.4-0.707 2.008-0.421s1.065 1.284 1.065 1.284-0.056 1.394-0.264 2.247c-0.209 0.853-0.605 2.55-0.605 2.55s0.383 1.013 0.31 1.944c-0.105 1.347-0.489 3.522-0.489 3.522s-0.332 0.142-0.823 0.131c-0.525-0.011-0.846-0.103-0.846-0.103s0.017-1.362-0.14-3.035c-0.060-0.643-0.257-3.538-0.27-4.449z"></path>
<path fill="#63363b" style="fill: var(--color7, #63363b)" d="M19.382 25.383c0 0 0.298 0.091 0.696 0.101s0.952-0.149 0.952-0.149 0.196 0.858 0.159 1.372c-0.019 0.258-0.183 0.313-0.509 0.544-0.204 0.146-0.478 0.454-0.8 0.642-0.342 0.199-1.244 0.241-1.612 0.088-0.772-0.321-0.516-0.728-0.089-1.069 0.151-0.121 0.413-0.375 0.542-0.548 0.382-0.509 0.66-0.981 0.66-0.981z"></path>
<path fill="#363b4e" style="fill: var(--color8, #363b4e)" d="M17.856 17.756c-0.153-2.454-0.036-3.177 0.11-3.557 0.126-0.328 1.488-0.685 2.108-0.43s1.128 1.23 1.128 1.23 0.054 1.191-0.030 1.842c-0.084 0.652-0.47 2.908-0.47 2.908s0.414 0.993 0.388 1.927c-0.038 1.351-0.061 3.634-0.061 3.634s-0.324 0.158-0.816 0.172c-0.525 0.015-0.85-0.062-0.85-0.062s-0.594-1.956-0.835-3.62c-0.092-0.64-0.583-2.612-0.672-4.045z"></path>
<path fill="#3e4858" style="fill: var(--color9, #3e4858)" d="M21.244 11.105c0.030-0.578-0.037-0.847 0.081-1.857 0.073-0.622 0.421-1.592 0.466-2.277s0.236-1.645-0.355-2.078c-0.591-0.433-2.45-0.743-3.171-0.749s-1.331 0.064-1.997 0.417c-0.733 0.39-0.721 1.026-0.821 2.1-0.011 0.12-0.106 1.377-0.124 1.864-0.042 1.158-0.102 2.156-0.235 2.792s-0.35 3.052-0.351 3.206c0 0 0.532 0.501 1.005 0.619s0.914 0.176 1.538 0.265c0.122 0.017 0.296-0.884 0.296-0.884l0.266 0.973c0 0 1.065 0.177 1.892 0.059s1.804-0.619 1.804-0.619-0.326-3.254-0.296-3.831z"></path>
<path fill="#f2f0eb" style="fill: var(--color2, #f2f0eb)" d="M19.584 4.563c0 0-1.858 5.416-2.042 5.474s-0.741-2.332-0.748-3.93c-0.007-1.598 0.237-1.946 0.237-1.946l2.553 0.402z"></path>
<path fill="#363b4e" style="fill: var(--color8, #363b4e)" d="M17.097 8.291c0.098 1.082 0.462 1.837 0.392 1.9s-0.503-0.796-0.71-1.297c-0.137-0.333-0.417-1.359-0.48-1.834s0.294-0.972 0.294-0.972c0 0-0.258-0.367-0.23-0.685s0.146-0.888 0.238-1.018c0.155-0.221 0.554-0.31 0.554-0.31s-0.157 3.134-0.059 4.216z"></path>
<path fill="#363b4e" style="fill: var(--color8, #363b4e)" d="M19.534 4.222c0 0 0.587 0.008 0.692 0.148s-0.069 0.897-0.111 1.255c-0.041 0.358-0.597 0.622-0.597 0.622s0.368 0.606 0.074 1.174c-0.352 0.679-1.865 2.939-2.104 2.769-0.136-0.097 0.721-1.598 1.329-3.485 0.462-1.434 0.717-2.484 0.717-2.484z"></path>
<path fill="#fff" style="fill: var(--color10, #fff)" d="M19.173 3.798c0 0 0.307 0.169 0.39 0.311s0.021 0.454 0.021 0.454-0.186 0.53-0.401 0.767c-0.216 0.237-0.758 0.681-0.758 0.681l-0.56-0.952 1.308-1.26z"></path>
<path fill="#fff" style="fill: var(--color10, #fff)" d="M17.534 3.826c0 0-0.333 0.103-0.391 0.227s-0.11 0.489-0.11 0.489 0.023 0.361 0.074 0.589c0.057 0.253 0.275 0.779 0.275 0.779l0.522-0.761-0.371-1.325z"></path>
<path fill="#a4273b" style="fill: var(--color11, #a4273b)" d="M17.755 5.047c0 0-0.706-0.568-0.774-0.228s-0.112 0.923 0.128 0.926c0.24 0.002 0.546-0.309 0.546-0.309l0.101-0.389z"></path>
<path fill="#a4273b" style="fill: var(--color11, #a4273b)" d="M17.979 5.1c0 0 0.796-0.433 0.803-0.086s-0.054 0.929-0.291 0.888c-0.237-0.040-0.482-0.401-0.482-0.401l-0.030-0.401z"></path>
<path fill="#bd273b" style="fill: var(--color12, #bd273b)" d="M17.832 5.017c-0.148 0.009-0.232 0.039-0.249 0.184s-0.070 0.353 0.032 0.392c0.102 0.039 0.392 0.074 0.431-0.028s0.029-0.345 0.023-0.412c-0.005-0.068-0.089-0.145-0.238-0.136z"></path>
<path fill="#b77e20" style="fill: var(--color13, #b77e20)" d="M17.727 11.236c-0.004 0.080 0.058 0.149 0.139 0.153s0.15-0.058 0.154-0.138c0.004-0.081-0.058-0.149-0.139-0.154s-0.15 0.058-0.154 0.138z"></path>
<path fill="#b77e20" style="fill: var(--color13, #b77e20)" d="M17.764 12.69c-0.004 0.080 0.058 0.149 0.139 0.154s0.15-0.058 0.154-0.138c0.004-0.081-0.058-0.149-0.139-0.154s-0.15 0.058-0.154 0.138z"></path>
<path fill="#b77e20" style="fill: var(--color13, #b77e20)" d="M17.779 14.131c-0.004 0.080 0.058 0.149 0.139 0.154s0.15-0.058 0.154-0.138c0.004-0.081-0.058-0.149-0.139-0.153s-0.15 0.058-0.154 0.138z"></path>
<path fill="#f5aa8a" style="fill: var(--color3, #f5aa8a)" d="M17.391 3.335l1.747-0.438 0.186 1.282c0 0-0.165 0.139-0.439 0.353s-0.979 0.597-0.979 0.597-0.292-0.341-0.404-0.471c-0.113-0.131-0.242-0.496-0.242-0.496l0.132-0.827z"></path>
<path fill="#f5aa8a" style="fill: var(--color3, #f5aa8a)" d="M17.034 0.71c0.376-0.634 1.356-0.63 1.856-0.338 0.769 0.45 0.847 1.489 0.564 2.395-0.155 0.498-0.392 0.828-0.812 1.058-0.913 0.499-1.49 0.088-1.671-0.206-0.201-0.328-0.284-1.137-0.277-1.447 0.010-0.453-0.037-0.828 0.339-1.462z"></path>
<path fill="#411b00" style="fill: var(--color14, #411b00)" d="M17.308 2.361c-0.006 0.083-0.074 0.145-0.153 0.139s-0.14-0.077-0.134-0.159c0.006-0.082 0.075-0.144 0.154-0.139s0.139 0.076 0.133 0.159z"></path>
<path fill="#411b00" style="fill: var(--color14, #411b00)" d="M18.469 2.451c-0.005 0.082-0.074 0.145-0.153 0.139s-0.139-0.076-0.134-0.159c0.006-0.082 0.075-0.145 0.154-0.139s0.139 0.076 0.133 0.158z"></path>
<path fill="#592221" style="fill: var(--color15, #592221)" d="M18.828 2.036c-0.204-0.136-0.566-0.184-0.754-0-0.017 0.017-0.005 0.050 0.020 0.049 0.081-0.003 0.162 0.008 0.246 0.001 0.143-0.011 0.288 0.002 0.413 0.077 0.082 0.049 0.153-0.075 0.075-0.127z"></path>
<path fill="#592221" style="fill: var(--color15, #592221)" d="M16.948 2.027c0.057-0.046 0.185-0.031 0.251-0.025 0.080 0.007 0.19 0.020 0.265 0.048 0.020 0.007 0.043-0.016 0.036-0.035-0.079-0.221-0.497-0.236-0.656-0.091-0.071 0.065 0.032 0.163 0.105 0.104z"></path>
<path fill="#d27d73" style="fill: var(--color16, #d27d73)" d="M17.816 3.194c0 0-0.024-0.002-0.064-0.013s-0.096-0.031-0.158-0.069c-0.031-0.020-0.063-0.044-0.094-0.076-0.030-0.034-0.057-0.070-0.078-0.127-0.003-0.011-0.006-0.019-0.009-0.032-0.002-0.016-0.005-0.033-0.005-0.048 0-0.030 0.006-0.064 0.019-0.093 0.026-0.060 0.071-0.094 0.106-0.124s0.067-0.055 0.087-0.079l0.007-0.009c0.002-0.004-0.003 0.005-0.002 0.004l0-0 0-0.001 0.001-0.002 0.002-0.004 0.004-0.007c0.006-0.011 0.007-0.017 0.010-0.024 0.005-0.013 0.012-0.035 0.017-0.053 0.011-0.038 0.017-0.078 0.025-0.115s0.014-0.073 0.019-0.106c0.012-0.067 0.022-0.123 0.029-0.162s0.012-0.062 0.012-0.062 0.021 0.090 0.030 0.227c0.004 0.069 0.007 0.149-0.004 0.238-0.003 0.023-0.005 0.044-0.013 0.072-0.004 0.014-0.008 0.029-0.012 0.038l-0.005 0.012-0.001 0.002-0 0.001-0.003 0.006-0.011 0.019c-0.030 0.050-0.070 0.082-0.103 0.112s-0.057 0.056-0.068 0.078c-0.006 0.011-0.008 0.022-0.009 0.035-0.001 0.006 0.001 0.011 0 0.016 0.001 0.008 0.005 0.020 0.006 0.030 0.005 0.024 0.021 0.059 0.039 0.085 0.017 0.029 0.040 0.054 0.061 0.078 0.043 0.047 0.085 0.085 0.114 0.111s0.048 0.042 0.048 0.042z"></path>
<path fill="#592221" style="fill: var(--color15, #592221)" d="M16.722 1.132c0.027-0.063-0.045-0.391 0.021-0.544s0.407-0.327 0.785-0.461c0.396-0.139 0.85-0.176 1.37-0.051s0.985 0.465 0.98 1.016c-0.003 0.463-0.072 1.234-0.17 1.273s-0.466 0.176-0.466 0.176-0.222-0.538-0.156-0.691c0.066-0.153-0.15-0.662-0.251-0.697-0.081 0.004-0.715 0.189-1.104 0.197s-0.608-0.294-0.61-0.292c0 0-0.127 0.153-0.205 0.287s-0.227 0.519-0.227 0.519-0.081-0.085-0.080-0.293c0.001-0.209 0.054-0.303 0.112-0.439z"></path>
<path fill="#f5aa8a" style="fill: var(--color3, #f5aa8a)" d="M19.458 2.046c0.308-0.107 0.472 0.254 0.352 0.674-0.075 0.264-0.438 0.385-0.591 0.309 0.012-0.269-0.046-0.884 0.239-0.984z"></path>
<path fill="#d3ecfe" style="fill: var(--color17, #d3ecfe)" d="M17.776 2.687c0.878 0.027 1.338-0.149 1.338-0.149s0.167 0.927-0.16 1.205c-0.306 0.26-0.844 0.454-1.348 0.35s-0.68-0.455-0.803-0.73c-0.123-0.275-0.126-0.899-0.126-0.899s0.221 0.195 1.099 0.222z"></path>
<path fill="#b1d7de" style="fill: var(--color18, #b1d7de)" d="M16.799 2.679c0 0 0.26 0.202 0.892 0.228 0.665 0.027 1.312-0.198 1.312-0.198l0.018 0.172c0 0-0.881 0.192-1.301 0.159s-0.889-0.168-0.889-0.168l-0.031-0.191z"></path>
<path fill="#b1d7de" style="fill: var(--color18, #b1d7de)" d="M16.874 3.199c0 0 0.241 0.149 0.834 0.173 0.624 0.025 1.298-0.195 1.298-0.195l-0.012 0.162c0 0-0.865 0.188-1.259 0.157s-0.834-0.158-0.834-0.158l-0.027-0.139z"></path>
<path fill="#b1d7de" style="fill: var(--color18, #b1d7de)" d="M18.898 3.6c-0.243 0.064-0.689 0.16-1.112 0.142-0.438-0.018-0.684-0.104-0.782-0.147 0.011 0.044 0.024 0.087 0.039 0.13 0.135 0.036 0.466 0.116 0.77 0.141 0.265 0.021 0.743-0.057 1.028-0.111 0.028-0.040 0.045-0.095 0.058-0.155z"></path>
<path fill="#f5aa8a" style="fill: var(--color3, #f5aa8a)" d="M17.703 11.211c0 0-1.041-0.528-1.626-0.233s-0.821 0.701-0.87 0.883c-0.1 0.368 0.132 0.334 0.132 0.334s-0.047 0.078 0.043 0.166c0.090 0.089 0.167 0.117 0.167 0.117s0.017 0.138 0.057 0.165c0.040 0.028 0.077 0.043 0.108 0.039 0.124-0.014 0.813-0.505 1.138-0.603 0.137-0.042 0.283 0.072 0.456 0.109 0.239 0.051 0.518-0.142 0.518-0.142s0.101-0.599-0.123-0.835z"></path>
<path fill="#f2f0eb" style="fill: var(--color2, #f2f0eb)" d="M21.091 4.983c-0.331 0.072-0.751 0.595-0.882 1.541s-0.432 2.771-0.466 2.949c-0.034 0.178-0.473 0.406-0.846 0.634-0.211 0.129-0.942 0.68-0.942 0.68l-0.485 0.185c0 0 0.163 0.439 0.234 0.659s0.099 0.595 0.099 0.595l0.441-0.113c0 0 0.786-0.078 1.217-0.181 0.795-0.191 2.002-0.485 2.23-0.99s0.367-2.659 0.443-3.412c0.076-0.753-0.054-1.834-0.237-2.14s-0.474-0.478-0.805-0.406z"></path>
<path fill="#dcd8da" style="fill: var(--color19, #dcd8da)" d="M18.681 11.724c0.001 0.061-0.048 0.111-0.109 0.112s-0.112-0.048-0.113-0.109c-0.001-0.061 0.048-0.111 0.109-0.112s0.112 0.047 0.113 0.109z"></path>
<path fill="#e9dbda" style="fill: var(--color20, #e9dbda)" d="M18.302 10.758c0.18 0.144 0.653 0.136 0.613 1.227s-0.096 2.95-0.146 3.452c-0.050 0.502-0.161 0.946 0.077 1.001s0.441-0.155 0.441-0.155c0 0 0.181 0.233 0.565 0.196s0.438-0.302 0.675-0.306c0.236-0.004 0.382-0.125 0.526-0.334s0.238-1.625 0.224-2.392c-0.013-0.766-0.226-2.767-0.619-3.232s-0.972-0.609-1.105-0.629c-0.133-0.020-0.238 0.109-0.557 0.275-0.084 0.044-0.262 0.24-0.262 0.24s-0.324 0.065-0.469 0.215c-0.145 0.15-0.143 0.297 0.037 0.442z"></path>
<path fill="#433431" style="fill: var(--color21, #433431)" d="M1.234 25.29c-0.075 0.824-0.489 2.848-0.602 3.26-0.099 0.363-0.188 0.6 0.188 0.562s0.451-0.112 0.677-0.75c0.226-0.637 0.544-2.288 0.677-3.147 0.15-0.974 0.226-3.597 0.226-3.597h-1.015c0-0-0.075 2.848-0.15 3.672z"></path>
<path fill="#433431" style="fill: var(--color21, #433431)" d="M5.059 20.569c-0.022 0.778-0.082 2.685-0.141 3.335-0.075 0.824-0.489 2.848-0.601 3.26-0.099 0.363-0.188 0.6 0.188 0.562s0.451-0.112 0.677-0.749c0.226-0.637 0.544-2.289 0.677-3.148 0.117-0.759 0.189-2.52 0.215-3.26h-1.014z"></path>
<path fill="#433431" style="fill: var(--color21, #433431)" d="M8.065 25.29c-0.075-0.824-0.15-3.672-0.15-3.672h-1.015c0 0 0.075 2.623 0.226 3.597 0.133 0.859 0.451 2.511 0.677 3.147s0.301 0.712 0.677 0.75c0.376 0.038 0.287-0.199 0.188-0.562-0.113-0.412-0.527-2.436-0.602-3.26z"></path>
<path fill="#433431" style="fill: var(--color21, #433431)" d="M10.809 23.904c-0.059-0.65-0.119-2.557-0.141-3.335h-1.013c0.026 0.74 0.097 2.501 0.215 3.26 0.133 0.859 0.451 2.511 0.677 3.148s0.301 0.712 0.677 0.749c0.376 0.038 0.287-0.199 0.188-0.562-0.113-0.412-0.526-2.436-0.601-3.26z"></path>
<path fill="#563e3e" style="fill: var(--color22, #563e3e)" d="M3.715 12.825c0 0-2.293-0.125-2.857 0-0.405 0.090-1.053 0.25-0.802 1.199s0.702 4.197 0.752 5.546c0.050 1.349 0.050 2.448 0.702 2.598s5.614 0 5.614 0 0.852 0 1.905-0.4c1.053-0.4 1.704-0.65 1.704-0.65s0.652-0.4-0.652-0.549c-1.303-0.15-5.714 0.050-5.714 0.050l-0.652-7.794z"></path>
<path fill="#6e5550" style="fill: var(--color23, #6e5550)" d="M10.081 20.569c-1.303-0.15-5.714 0.050-5.714 0.050l-0.652-7.794c0 0-2.293-0.125-2.857 0-0.054 0.012-0.113 0.025-0.173 0.042-0.059 0.163-0.067 0.38 0.010 0.67 0.251 0.949 0.702 4.197 0.752 5.546 0.018 0.489 0.050 0.962 0.068 1.335 0.033 0.689 0.020 1.276 0.020 1.276s2.070-0.16 2.406-0.15c1.555 0.047 3.872 0.038 3.872 0.037s0.802 0.1 1.855-0.3c0.501-0.19 0.91-0.346 1.203-0.458-0.066-0.097-0.275-0.195-0.789-0.254z"></path>
<path fill="#f5aa8a" style="fill: var(--color3, #f5aa8a)" d="M7.438 14.284c0 0 0.135 0.769 0.193 1.173s0.096 1.403 0.096 1.403l0.347 0.077 0.097 0.725c0 0-1.158 0.41-1.544 0.006s-0.212-3.518-0.212-3.518l1.022 0.135z"></path>
<path fill="#e49e80" style="fill: var(--color24, #e49e80)" d="M11.421 24.122l0.586 2.217 1.336-0.237-0.489-2.322-1.433 0.342z"></path>
<path fill="#448294" style="fill: var(--color25, #448294)" d="M6.139 17.902c0 0 5.297-0.599 5.92 0.588s1.248 5.996 1.133 6.168c-0.115 0.172-1.747 0.348-1.801 0.164-0.099-0.337-1.025-3.821-1.285-4.16s-2.303 0.221-3.318 0.256c-1.052 0.038-2.572 0.271-2.948-0.33-0.35-0.561-0.318-2.2-0.318-2.2l2.617-0.485z"></path>
<path fill="#f5aa8a" style="fill: var(--color3, #f5aa8a)" d="M8.936 25.001l0.278 2.278 1.356-0.043-0.167-2.368-1.466 0.133z"></path>
<path fill="#4c96a6" style="fill: var(--color26, #4c96a6)" d="M4.487 18.225c0 0 5.144 0.361 5.748 1.384 0.683 1.157 0.521 6.022 0.383 6.176s-1.777 0.052-1.806-0.138c-0.052-0.348-0.58-3.721-0.791-4.094s-1.85-0.225-3.084-0.2c-0.542 0.011-1.486 0.005-1.98-0.154-0.467-0.15-0.905-0.468-1.046-0.783-0.27-0.606-0.015-2.223-0.015-2.223l2.591 0.033z"></path>
<path fill="#fd5103" style="fill: var(--color1, #fd5103)" d="M13.36 25.997c0 0 0.933 0.61 1.845 1.152 0.354 0.211 0.679 0.596 0.294 0.905-0.191 0.153-1.227 0.367-1.926 0.052-0.796-0.358-1.48-0.331-1.71-0.6s0.082-1.272 0.082-1.272l1.415-0.237z"></path>
<path fill="#fd5103" style="fill: var(--color1, #fd5103)" d="M13.584 26.91c0 0-0.663-0.291-0.907-0.627l0.907 0.627z"></path>
<path fill="#fd5103" style="fill: var(--color1, #fd5103)" d="M15.527 27.654c0 0-0.188 0.231-0.668 0.285s-0.77 0.052-1.193-0.079c-0.423-0.131-0.655-0.318-1.007-0.397s-0.641-0.082-0.802-0.218z"></path>
<path fill="#fd5103" style="fill: var(--color1, #fd5103)" d="M10.617 27.143c0 0 0.77 0.805 1.534 1.539 0.297 0.285 0.526 0.734 0.081 0.948-0.221 0.106-1.278 0.080-1.888-0.385-0.694-0.529-1.366-0.656-1.529-0.97s0.369-1.221 0.369-1.221l1.432 0.089z"></path>
<path fill="#8db1cc" style="fill: var(--color27, #8db1cc)" d="M10.635 25.433c0 0-0.335 0.163-0.881 0.137s-0.985-0.219-0.985-0.219-0.153 0.295-0.014 0.493c0.139 0.198 0.466 0.305 1.002 0.363s0.901-0.093 0.99-0.296c0.088-0.202-0.11-0.478-0.11-0.478z"></path>
<path fill="#88a5bd" style="fill: var(--color28, #88a5bd)" d="M13.202 24.339c0 0-0.293 0.23-0.833 0.319s-1.027-0.106-1.027-0.106-0.069 0.419 0.108 0.584c0.177 0.165 0.52 0.2 1.055 0.145s0.861-0.28 0.905-0.497c0.044-0.217-0.209-0.444-0.209-0.444z"></path>
<path fill="#5f6775" style="fill: var(--color29, #5f6775)" d="M2.968 18.93c-0.366 0.192-0.978 0.439-1.173 0.568s-0.279-0.375-0.254-0.632 0.103-0.461 0.103-0.461c0 0-0.037-0.699-0.018-0.999 0.021-0.325 0.039-0.641 0.039-0.909 0.004-1.643-0.227-4.116 0.275-4.924s1.762-1.038 3.086-1c1.325 0.038 1.993 0.603 2.147 1.192s0.283 1.41 0.283 1.717 0.18 0.743 0.103 0.846c-0.077 0.103-0.54 0.154-0.54 0.154s-0.175 0.985-0.18 1.256c-0.026 1.256-0.027 2.114-0.027 2.114s-1.147 0.229-1.845 0.387c-0.698 0.158-1.319 0.334-2 0.691z"></path>
<path fill="#5f6775" style="fill: var(--color29, #5f6775)" d="M6.763 11.586c0 0 0.18 0.641 0.206 1.077s0.129 1.487 0.051 1.82z"></path>
<path fill="#5f6775" style="fill: var(--color29, #5f6775)" d="M1.696 18.533c0 0 1.312-0.615 2.469-0.82l-2.469 0.82z"></path>
<path fill="#f5aa8a" style="fill: var(--color3, #f5aa8a)" d="M5.588 9.962l0.048 0.669c0 0 0.041 0.692-0.566 0.769s-1.065-0.818-1.065-0.818l-0.002-1.102 1.584 0.481z"></path>
<path fill="#592c30" style="fill: var(--color30, #592c30)" d="M6.044 7.245c0 0 0.546 0.312 0.534 1.058s-0.33 0.793-0.585 0.611c-0.255-0.181-1.036-1.109-1.036-1.109l0.328-0.847 0.76 0.287z"></path>
<path fill="#f5aa8a" style="fill: var(--color3, #f5aa8a)" d="M6.164 7.702c0.307 0.849 0.27 2.544-0.63 2.647s-1.415-0-1.857-1.397c-0.443-1.398 0.352-1.98 0.712-2.050 0.28-0.055 1.467-0.048 1.775 0.801z"></path>
<path fill="#522c31" style="fill: var(--color31, #522c31)" d="M4.653 8.855c0.025 0.071 0.102 0.11 0.174 0.085s0.11-0.102 0.085-0.173c-0.024-0.071-0.102-0.109-0.174-0.085s-0.11 0.102-0.085 0.173z"></path>
<path fill="#522c31" style="fill: var(--color31, #522c31)" d="M5.837 8.804c0.026 0.076 0.105 0.117 0.177 0.093s0.109-0.106 0.083-0.182c-0.026-0.076-0.105-0.117-0.177-0.093s-0.108 0.106-0.083 0.181z"></path>
<path fill="#d27d73" style="fill: var(--color16, #d27d73)" d="M5.386 8.523c0.033 0.070 0.059 0.141 0.082 0.212 0.012 0.036 0.021 0.072 0.032 0.108s0.018 0.072 0.027 0.108l-0.029-0.044c0.033 0.019 0.062 0.038 0.091 0.061s0.058 0.045 0.084 0.072c0.013 0.013 0.026 0.029 0.038 0.044 0.012 0.017 0.024 0.033 0.035 0.054 0.011 0.019 0.020 0.044 0.022 0.074 0.003 0.028-0.006 0.066-0.025 0.089l-0.014 0.018-0.004 0.004-0.005 0.004-0 0-0.001 0-0.001 0.001-0.005 0.004-0.021 0.015-0.043 0.028c-0.015 0.009-0.027 0.019-0.045 0.027l-0.051 0.023c-0.034 0.015-0.067 0.029-0.101 0.039s-0.068 0.019-0.103 0.025c0.027-0.023 0.053-0.046 0.080-0.068s0.052-0.044 0.077-0.064l0.037-0.031c0.013-0.009 0.024-0.023 0.037-0.035l0.036-0.036 0.025-0.023 0.001-0.001 0-0 0-0c-0.002 0.002 0.005-0.004-0.004 0.004v-0.001c0-0.001 0-0.002 0.001-0.003 0.002-0.001 0-0.003 0-0.003 0.001 0-0.001-0.003-0.002-0.004 0.001-0.001-0.002-0.006-0.004-0.009s-0.004-0.008-0.007-0.013-0.014-0.021-0.022-0.031c-0.010-0.011-0.019-0.021-0.030-0.032-0.022-0.021-0.045-0.043-0.070-0.063s-0.051-0.040-0.075-0.059l-0.027-0.021-0.002-0.023c-0.004-0.037-0.009-0.074-0.011-0.111s-0.006-0.074-0.006-0.112c-0.003-0.075-0.002-0.15 0.005-0.227z"></path>
<path fill="#592c30" style="fill: var(--color30, #592c30)" d="M6.206 8.541c0.005-0.001 0.011-0.001 0.016-0.002 0.051-0.006 0.066-0.062 0.025-0.093-0.101-0.076-0.339-0.118-0.441-0.029-0.038 0.033-0.003 0.082 0.036 0.087 0.058 0.008 0.119-0.013 0.179-0.009 0.066 0.005 0.123 0.028 0.187 0.042-0.004-0.030-0.008-0.061-0.012-0.091-0.005 0.003-0.010 0.006-0.014 0.009-0.036 0.022-0.025 0.092 0.023 0.086z"></path>
<path fill="#592c30" style="fill: var(--color30, #592c30)" d="M5.055 8.427c-0.046-0.059-0.154-0.061-0.221-0.068-0.112-0.012-0.26 0.010-0.348 0.083-0.018 0.015-0.015 0.045 0 0.061-0-0.004-0.001-0.008-0.001-0.012-0.001 0.009 0.001 0.020 0.010 0.024 0.003 0.001 0.005 0.002 0.008 0.004 0.021 0.010 0.042 0.001 0.050-0.020 0.002-0.005 0.004-0.010 0.006-0.014-0.014 0.011-0.028 0.021-0.042 0.032 0.098 0.005 0.187-0.054 0.286-0.053 0.034 0 0.067 0.005 0.101 0.008 0.017 0.002 0.090 0.006 0.088 0.005 0.032 0.026 0.094-0.009 0.064-0.049z"></path>
<path fill="#fff" style="fill: var(--color10, #fff)" d="M5.646 9.585c-0.054 0.019-0.249 0.030-0.29 0.025-0.207-0.023-0.331-0.255-0.422-0.192s-0.198 0.419 0.133 0.522c0.44 0.136 0.58-0.354 0.58-0.354z"></path>
<path fill="#592c30" style="fill: var(--color30, #592c30)" d="M6.453 7.178c-0.268-0.26-0.485-0.286-0.485-0.286s-0.256-0.45-0.825-0.583c-0.569-0.133-0.879 0.35-0.879 0.35s-0.501-0.132-0.809 0.283c-0.308 0.415-0.149 1.060 0.328 1.159s0.692-0.433 0.692-0.433 0.581 0.228 0.855 0.166c0.274-0.063 0.471-0.304 0.471-0.304s0.218 0.616 0.64 0.508c0.314-0.080 0.278-0.601 0.011-0.86z"></path>
<path fill="#592c30" style="fill: var(--color30, #592c30)" d="M3.512 7.294c0 0-0.529 0.327-0.513 0.762s0.297 0.657 0.297 0.657c0 0 0.295 0.066 0.405 0.267s0.264 0.196 0.364 0.090c0.029-0.031 0.022-0.341 0.022-0.341s0.087-0.202 0.076-0.509c-0.011-0.307-0.076-0.69-0.076-0.69l-0.575-0.236z"></path>
<path fill="#f5aa8a" style="fill: var(--color3, #f5aa8a)" d="M3.858 8.865c-0.071-0.28-0.566-0.416-0.623-0.079s0.221 0.737 0.549 0.772c0.328 0.035 0.145-0.414 0.073-0.694z"></path>
<path fill="#f5aa8a" style="fill: var(--color3, #f5aa8a)" d="M10.206 17.459c-0.052-0.235-0.294-0.517-0.498-0.58-0.275-0.084-0.741-0.227-1.019-0.151-0.096 0.026-0.559 0.082-0.727 0.185s-0.025 0.595 0.123 0.746c0.052 0.001 0.106 0.002 0.163 0.003 0.234 0.003 0.643 0.060 0.747 0.071 0.179 0.019 0.368 0.184 0.464 0.017s-0.231-0.28-0.117-0.294c0.058-0.007 0.176 0.002 0.276 0.115 0.097 0.11 0.188 0.215 0.253 0.271 0.159 0.139 0.264-0.123 0.264-0.123s0.122-0.031 0.071-0.261z"></path>
<path fill="#6e5550" style="fill: var(--color23, #6e5550)" d="M17.896 29.883c0 0.371-1.189 0.507-2.655 0.507s-2.655-0.136-2.655-0.507c0-0.372 1.188-0.673 2.655-0.673s2.655 0.301 2.655 0.673z"></path>
<path fill="#433431" style="fill: var(--color21, #433431)" d="M14.865 18.017v11.441h0.002c0.008 0.115 0.172 0.208 0.374 0.208s0.366-0.093 0.374-0.208h0.002v-11.441h-0.751z"></path>
<path fill="#957765" style="fill: var(--color32, #957765)" d="M15.241 17.931h-8.608c0 0 0.004 0.259 0.009 0.48 0.003 0.164 0.050 0.267 0.157 0.334 0.081 0.051 0.378 0.131 1.018 0.173 2.018 0.132 6.045 0.056 7.423 0.067 1.378-0.011 5.405 0.064 7.423-0.067 0.641-0.042 0.937-0.122 1.018-0.173 0.107-0.067 0.154-0.17 0.157-0.334 0.005-0.221 0.009-0.48 0.009-0.48h-8.608z"></path>
<path fill="#ae8b76" style="fill: var(--color33, #ae8b76)" d="M15.241 17.74c-1.822 0.006-8.608 0.053-8.608 0.191s0.782 0.267 8.608 0.267c7.825 0 8.608-0.128 8.608-0.267s-6.785-0.185-8.608-0.191z"></path>
<path fill="#f3f3f3" style="fill: var(--color34, #f3f3f3)" d="M17.563 17.852c0 0.098-0.571 0.178-1.276 0.178s-1.276-0.080-1.276-0.178c0-0.098 0.571-0.178 1.276-0.178s1.276 0.080 1.276 0.178z"></path>
<path fill="#d7d7d7" style="fill: var(--color35, #d7d7d7)" d="M16.286 17.942c0.494 0 0.894-0.050 0.894-0.112s-0.4-0.112-0.894-0.112c-0.494 0-0.894 0.050-0.894 0.112s0.4 0.112 0.894 0.112z"></path>
<path fill="#fbfbfb" style="fill: var(--color36, #fbfbfb)" d="M16.286 16.494c-0.638 0-0.977 0.098-0.977 0.098 0 0.229 0.221 0.852 0.365 0.967s0.333 0.183 0.612 0.183c0.279 0 0.469-0.068 0.612-0.183s0.365-0.737 0.365-0.967c-0 0-0.339-0.098-0.977-0.098z"></path>
<path fill="#eee" style="fill: var(--color37, #eee)" d="M15.332 16.617c0 0.036 0.428 0.064 0.955 0.064s0.955-0.029 0.955-0.064-0.427-0.097-0.955-0.097c-0.527 0-0.955 0.062-0.955 0.097z"></path>
<path fill="#fbfbfb" style="fill: var(--color36, #fbfbfb)" d="M16.982 17.538c-0.063 0-0.102-0.010-0.106-0.011l0.021-0.091c0.002 0 0.201 0.047 0.424-0.098 0.135-0.088 0.225-0.216 0.235-0.334 0.005-0.067-0.017-0.125-0.064-0.169-0.131-0.121-0.295 0.015-0.296 0.016l-0.056-0.073c0.077-0.065 0.262-0.151 0.411-0.013 0.068 0.063 0.101 0.151 0.093 0.247-0.012 0.147-0.118 0.302-0.277 0.405-0.152 0.099-0.294 0.12-0.386 0.12z"></path>
<path fill="#eee" style="fill: var(--color37, #eee)" d="M16.286 17.645c-0.518 0-0.79-0.46-0.864-0.566 0.075 0.213 0.174 0.419 0.25 0.48 0.086 0.069 0.139 0.114 0.168 0.139-0.088 0.020-0.142 0.046-0.142 0.074 0 0.063 0.263 0.114 0.588 0.114s0.588-0.051 0.588-0.114c0-0.028-0.054-0.054-0.142-0.074 0.029-0.025 0.081-0.070 0.167-0.139 0.076-0.061 0.175-0.267 0.25-0.48-0.073 0.106-0.346 0.566-0.864 0.566z"></path>
<path fill="#f3f3f3" style="fill: var(--color34, #f3f3f3)" d="M10.284 17.903c0 0.098-0.571 0.178-1.276 0.178s-1.276-0.080-1.276-0.178c0-0.098 0.571-0.178 1.276-0.178s1.276 0.080 1.276 0.178z"></path>
<path fill="#d7d7d7" style="fill: var(--color35, #d7d7d7)" d="M9.903 17.882c0 0.062-0.4 0.112-0.894 0.112s-0.894-0.050-0.894-0.112c0-0.062 0.4-0.112 0.894-0.112s0.894 0.050 0.894 0.112z"></path>
<path fill="#433431" style="fill: var(--color21, #433431)" d="M23 23.107c0.022 0.778 0.082 2.685 0.141 3.335 0.075 0.824 0.489 2.848 0.601 3.26 0.099 0.363 0.188 0.6-0.188 0.562s-0.451-0.112-0.677-0.749c-0.226-0.637-0.544-2.289-0.677-3.148-0.117-0.759-0.189-2.52-0.215-3.26h1.013z"></path>
<path fill="#323d67" style="fill: var(--color38, #323d67)" d="M21.166 27.816c0 0 0.025 0.224-0.012 0.485-0.030 0.215-0.13 0.446-0.266 0.699-0.126 0.233-0.334 0.381-0.535 0.733-0.155 0.272 0.018 0.571 0.28 0.664 0.486 0.173 1.277-0.338 1.522-0.804 0.238-0.452 0.549-0.692 0.809-0.838s0.448-0.564 0.172-0.885c-0.109-0.127-0.293-0.294-0.494-0.481-0.238-0.221-0.411-0.418-0.411-0.418l-1.064 0.845z"></path>
<path fill="#dba990" style="fill: var(--color39, #dba990)" d="M21.538 29.023c0.385-0.357 0.587-0.813 0.866-1.125 0.153-0.171 0.262-0.319 0.248-0.5-0.004-0.003-0.007-0.006-0.011-0.010-0.238-0.221-0.411-0.418-0.411-0.418l-1.064 0.845c0 0 0.025 0.224-0.012 0.485-0.030 0.215-0.13 0.446-0.266 0.699-0.024 0.044-0.051 0.085-0.080 0.125 0.095 0.155 0.408 0.196 0.73-0.102z"></path>
<path fill="#212a3f" style="fill: var(--color40, #212a3f)" d="M18.766 21.458c-0.491 0.006-0.779 0.157-0.857 1.008s1.698 3.833 1.954 4.404c0.256 0.571 0.528 1.202 0.528 1.202s0.672 0.019 1.186-0.274c0.514-0.292 1.019-0.868 1.019-0.868s-1.353-2.708-1.677-3.253c-0.323-0.545-1.014-1.602-1.014-1.602s-0.648-0.622-1.14-0.617z"></path>
<path fill="#43528b" style="fill: var(--color41, #43528b)" d="M18.721 28.796c0 0-0.023 0.225-0.113 0.472-0.074 0.204-0.22 0.41-0.405 0.629-0.171 0.202-0.406 0.303-0.676 0.607-0.208 0.233-0.102 0.562 0.135 0.707 0.439 0.27 1.319-0.066 1.656-0.472 0.327-0.393 0.681-0.563 0.966-0.652s0.555-0.46 0.353-0.83c-0.080-0.147-0.225-0.348-0.383-0.573-0.187-0.266-0.315-0.494-0.315-0.494l-1.217 0.606z"></path>
<path fill="#f5aa8a" style="fill: var(--color3, #f5aa8a)" d="M18.834 30.053c0.451-0.27 0.744-0.674 1.082-0.921 0.186-0.136 0.323-0.258 0.346-0.438-0.003-0.004-0.006-0.008-0.008-0.012-0.187-0.266-0.315-0.494-0.315-0.494l-1.217 0.606c0 0-0.023 0.225-0.113 0.472-0.074 0.204-0.22 0.41-0.406 0.629-0.032 0.038-0.067 0.073-0.104 0.106 0.061 0.172 0.358 0.276 0.735 0.051z"></path>
<path fill="#344163" style="fill: var(--color42, #344163)" d="M17.696 22.080c-0.481-0.096-0.794-0.008-1.048 0.809s0.863 4.101 0.995 4.712c0.132 0.611 0.267 1.285 0.267 1.285s0.653 0.157 1.217-0.023c0.563-0.18 1.177-0.638 1.177-0.638s-0.76-2.929-0.963-3.529c-0.203-0.6-0.659-1.777-0.659-1.777s-0.505-0.743-0.986-0.839z"></path>
<path fill="#433431" style="fill: var(--color21, #433431)" d="M26.825 27.597c0.075 0.824 0.489 2.848 0.601 3.26 0.099 0.363 0.188 0.6-0.188 0.562s-0.451-0.112-0.676-0.75c-0.226-0.637-0.544-2.288-0.677-3.147-0.15-0.974-0.226-3.597-0.226-3.597h1.015c0 0 0.075 2.848 0.15 3.672z"></path>
<path fill="#433431" style="fill: var(--color21, #433431)" d="M19.994 28.174c0.075-0.824 0.15-3.672 0.15-3.672h1.015c0 0-0.075 2.623-0.226 3.597-0.133 0.859-0.451 2.511-0.677 3.148s-0.301 0.712-0.677 0.749c-0.376 0.038-0.287-0.199-0.188-0.562 0.113-0.412 0.526-2.436 0.602-3.26z"></path>
<path fill="#433431" style="fill: var(--color21, #433431)" d="M17.25 26.788c0.059-0.65 0.119-2.557 0.141-3.335h1.013c-0.026 0.74-0.097 2.501-0.215 3.26-0.133 0.859-0.451 2.511-0.677 3.148s-0.301 0.712-0.677 0.749c-0.376 0.038-0.287-0.199-0.188-0.562 0.113-0.412 0.526-2.436 0.601-3.26z"></path>
<path fill="#563e3e" style="fill: var(--color22, #563e3e)" d="M26.501 24.608c-0.357 0.249-5.565 0.098-5.565 0.098s-0.852 0-1.905-0.4c-1.053-0.4-1.704-0.65-1.704-0.65s-0.652-0.4 0.652-0.549c1.303-0.15 5.714 0.050 5.714 0.050s1.304 0.144 2.114 0.528c0.81 0.385 1.051 0.674 0.694 0.923z"></path>
<path fill="#344163" style="fill: var(--color42, #344163)" d="M20.558 20.763c0 0-3.707 0.643-3.808 1.991-0.076 1.013 0.339 0.624 1.149 0.547s2.243-0.142 3.166 0.055c0.694 0.149 2.687 0.288 2.813-0.576s-0.127-1.729-0.481-2.017c-0.355-0.288-2.839 0-2.839 0z"></path>
<path fill="#5f6775" style="fill: var(--color29, #5f6775)" d="M25.572 21.676c0 0-0.139-2.072-0.135-2.392 0.008-0.659 0.195-2.292 0.169-3.605-0.035-1.785-0.702-2.178-1.453-2.459s-1.893-0.067-2.4 0.067c-0.507 0.135-1.359 0.914-1.153 2.503s0.129 2.051 0.129 2.871c0 0.82-0.631 2.072-0.496 2.341 0.056 0.112 1.014 1.28 2.332 1.348s3.008-0.674 3.008-0.674z"></path>
<path fill="#f5aa8a" style="fill: var(--color3, #f5aa8a)" d="M17.735 18.399c0 0-0.382-0.68-1.041-0.809s-1.225 0.305-1.228 0.354c-0.001 0.011-0.087 0.051-0.102 0.147s0.034 0.125 0.034 0.125-0.143 0.060-0.137 0.175c0.006 0.115 0.080 0.139 0.080 0.139s-0.116 0.194 0.015 0.213c0.113 0.017 0.17-0.030 0.287-0.041 0.148-0.014 0.315-0.001 0.427 0.022 0.201 0.042 0.287 0.293 0.524 0.328 0.384 0.058 0.755 0.065 0.92-0.054s0.22-0.599 0.22-0.599z"></path>
<path fill="#f5aa8a" style="fill: var(--color3, #f5aa8a)" d="M17.693 18.225l-0.272 0.776c0 0 1.070 0.249 2.175 0.147s1.795-0.212 2.032-0.718c0.237-0.505 0.479-2.652 0.412-3.461s-0.36-1.205-0.797-1.256c-0.437-0.051-0.772 0.923-0.849 1.641s-0.36 2.102-0.36 2.102-0.926 0.256-1.286 0.359c-0.36 0.103-1.054 0.41-1.054 0.41z"></path>
<path fill="#f5aa8a" style="fill: var(--color3, #f5aa8a)" d="M22.010 11.985l-0.125 1.292c0 0 0.386 0.179 0.926 0.128s0.797-0.359 0.797-0.359l-0.267-1.142-1.331 0.080z"></path>
<path fill="#f5aa8a" style="fill: var(--color3, #f5aa8a)" d="M20.926 10.904c0.055-0.132 0.078-0.625 0.116-0.811 0.24-1.18 1.501-1.305 2.225-0.967s0.924 1.872 0.645 2.339c-0.278 0.468-1.013 0.804-1.339 0.935s-0.809 0.385-1.32 0.157c-0.272-0.122-0.311-0.829-0.35-0.867-0.087-0.085-0.261-0.189-0.236-0.335 0.115-0.19 0.202-0.318 0.257-0.451z"></path>
<path fill="#481609" style="fill: var(--color43, #481609)" d="M21.342 10.814c-0.031-0.071-0.113-0.1-0.18-0.063s-0.097 0.127-0.066 0.198c0.031 0.071 0.113 0.099 0.18 0.063s0.097-0.127 0.066-0.198z"></path>
<path fill="#954331" style="fill: var(--color44, #954331)" d="M21.489 10.644c0.012 0.001 0.022-0.004 0.030-0.012 0.010-0.009 0.013-0.024 0.010-0.036-0.002-0.009-0.010-0.014-0.013-0.022 0.012 0.036 0.003-0.001-0.009-0.016-0.024-0.029-0.069-0.043-0.103-0.056-0.103-0.039-0.223-0.052-0.33-0.024-0.080 0.021-0.046 0.147 0.034 0.124 0.083-0.024 0.165-0.011 0.247 0.009 0.030 0.007 0.059 0.018 0.089 0.025 0.009 0.002 0.018 0.004 0.026 0.005 0.006 0.001 0.012 0.001 0.018-0.001 0.022-0.007 0.014-0.009-0.022-0.006-0.003-0.012-0.006-0.024-0.010-0.036-0 0.001-0 0.001-0.001 0.001 0.009-0.009 0.017-0.017 0.026-0.026-0.001 0-0.002 0.001-0.003 0.001-0.037 0.015-0.033 0.067 0.010 0.070z"></path>
<path fill="#954331" style="fill: var(--color44, #954331)" d="M24.739 12.893c-0.18-0.359-0.178-0.947-0.125-1.726 0.036-0.528-0.086-0.912-0.168-1.105-0.097-0.735-0.664-1.044-0.996-1.198-0.345-0.16-1.066-0.363-1.944 0.178-0.37 0.228-0.554 0.653-0.453 0.964s0.439 0.391 0.704 0.734c0.265 0.343 0.046 0.598 0.36 0.897 0.049 0.047 0.1 0.101 0.151 0.156-0.016 0.101-0.061 0.307-0.177 0.459-0.159 0.208-0.122 0.552-0.043 0.837s0.238 0.624 0.185 0.857c-0.053 0.234-0.349 0.74-0.117 1.202s0.592 0.769 1.054 0.59c0.463-0.179 0.772-0.41 1.183-0.487s0.925-0.297 1.003-0.795c0.079-0.498-0.437-1.205-0.617-1.564z"></path>
<path fill="#f5aa8a" style="fill: var(--color3, #f5aa8a)" d="M21.908 11.249c0 0 0.131-0.535 0.491-0.228s-0.051 0.822-0.357 0.805c-0.306-0.016-0.134-0.577-0.134-0.577z"></path>
<path fill="#fff" style="fill: var(--color10, #fff)" d="M20.959 11.893c0 0 0.195-0.018 0.334-0.077 0.159-0.067 0.268-0.171 0.309-0.103 0.077 0.128 0.077 0.487-0.36 0.487-0.284 0-0.283-0.308-0.283-0.308z"></path>
<path fill="#563e3e" style="fill: var(--color22, #563e3e)" d="M26.578 24.608c0.652-0.15 0.623-1.152 0.673-2.501s0.501-4.596 0.752-5.546c0.251-0.949-0.397-1.109-0.802-1.199-0.369-0.082-2.398 0.055-2.745 0.094s-0.992 0.192-1.196 0.385c-0.267 0.252-0.231 3.384-0.231 3.384l-0.386 4.768c0 0 0 0.692 1.35 0.654s2.585-0.038 2.585-0.038z"></path>
<path fill="#563e3e" style="fill: var(--color22, #563e3e)" d="M21.949 24.117c0.011 0 0.011-0.016 0-0.016s-0.011 0.016 0 0.016z"></path>
<path fill="#6e5550" style="fill: var(--color23, #6e5550)" d="M22.657 23.818c0.18 0.012 0.36 0.029 0.54 0.045l0.372-4.601c0 0-0.035-3.132 0.231-3.384 0.204-0.193 0.849-0.346 1.196-0.385 0.267-0.030 1.526-0.117 2.262-0.119-0.020-0.005-0.039-0.009-0.058-0.013-0.369-0.082-2.398 0.055-2.745 0.094s-0.992 0.192-1.196 0.385c-0.267 0.252-0.231 3.384-0.231 3.384l-0.372 4.594z"></path>
<path fill="#fbfbfb" style="fill: var(--color36, #fbfbfb)" d="M8.568 16.391c0.638 0 0.977 0.098 0.977 0.098 0 0.229-0.221 0.852-0.365 0.967s-0.333 0.182-0.612 0.182-0.469-0.068-0.612-0.182c-0.143-0.115-0.365-0.738-0.365-0.967 0 0 0.339-0.098 0.977-0.098z"></path>
<path fill="#eee" style="fill: var(--color37, #eee)" d="M9.523 16.514c0 0.036-0.428 0.064-0.955 0.064s-0.955-0.029-0.955-0.064 0.427-0.097 0.955-0.097c0.527 0 0.955 0.062 0.955 0.097z"></path>
<path fill="#fbfbfb" style="fill: var(--color36, #fbfbfb)" d="M7.873 17.435c0.063 0 0.102-0.010 0.106-0.011l-0.021-0.091c-0.002 0-0.201 0.047-0.424-0.098-0.135-0.088-0.225-0.216-0.235-0.334-0.005-0.067 0.017-0.125 0.064-0.169 0.13-0.121 0.295 0.015 0.296 0.016l0.056-0.073c-0.077-0.065-0.262-0.151-0.411-0.013-0.068 0.063-0.101 0.151-0.094 0.247 0.012 0.147 0.118 0.302 0.277 0.405 0.152 0.099 0.294 0.12 0.386 0.12z"></path>
<path fill="#eee" style="fill: var(--color37, #eee)" d="M8.568 17.543c0.518 0 0.79-0.46 0.864-0.566-0.075 0.213-0.174 0.419-0.25 0.48-0.086 0.069-0.139 0.114-0.168 0.139 0.088 0.020 0.142 0.046 0.142 0.074 0 0.063-0.263 0.114-0.588 0.114s-0.588-0.051-0.588-0.114c0-0.028 0.054-0.054 0.142-0.074-0.029-0.025-0.081-0.070-0.168-0.139-0.076-0.061-0.175-0.267-0.25-0.48 0.073 0.107 0.346 0.566 0.864 0.566z"></path>
<path fill="#f5aa8a" style="fill: var(--color3, #f5aa8a)" d="M3.38 15.93l0.006-2.044-1.706 0.125c0 0-0.037 2.522 0.517 2.983 0 0 0.484-0.037 0.829-0.304s0.354-0.76 0.354-0.76z"></path>
<path fill="#f5aa8a" style="fill: var(--color3, #f5aa8a)" d="M2.228 17.025c0.641 0.493 3.767 0.681 3.767 0.681l0.128-0.916c0 0-1.853-1.062-2.29-1.236s-0.813-0.162-0.813-0.162c0 0-0.49 0.124-0.67 0.4s-0.517 0.93-0.122 1.234z"></path>
<path fill="#f5aa8a" style="fill: var(--color3, #f5aa8a)" d="M7.843 17.581c0.014-0.141-0.108-0.102-0.328-0.093 0.017-0.003 0.050-0.010 0.050-0.010s0.346-0.021 0.354-0.242c0.011-0.273-0.234-0.122-0.501-0.093-0.017 0.002-0.035 0.003-0.054 0.003 0.056-0.008 0.108-0.017 0.155-0.027 0.262-0.057 0.36-0.171 0.33-0.252-0.092-0.242-0.21-0.112-0.477-0.084-0.108 0.011-0.257-0.013-0.396-0.046 0.038-0.027 0.094-0.052 0.166-0.040 0.236 0.039 0.422-0.134 0.345-0.232s-0.475-0.255-0.846-0.115c-0.372 0.139-0.756 0.092-0.942 0.435-0.16 0.296-0.193 0.599-0.043 0.857 0.109 0.188 0.592 0.334 0.905 0.338 0.18 0.035 0.386 0.071 0.563 0.064 0.275-0.010 0.403-0.028 0.458-0.11s0.013-0.112-0.061-0.142c0.001-0 0.003-0.001 0.004-0.001 0.141-0.016 0.303-0.069 0.318-0.21z"></path>
<path fill="#5f6775" style="fill: var(--color29, #5f6775)" d="M3.599 12.063c0 0 0.178 2.384 0.008 2.66s-2.034 0.4-2.235 0.202c-0.201-0.197 0.043-0.397-0.026-1.194-0.082-0.937 0.235-2.002 0.71-2.351 0.932-0.685 1.566 0.003 1.543 0.682z"></path>
<path fill="#5f6775" style="fill: var(--color29, #5f6775)" d="M3.559 11.9c0 0 0.214 0.25 0.121 0.768s-0.245 1.030-0.221 1.301c0.025 0.272 0.175 0.618 0.098 0.754-0.082 0.147-0.257 0.147-0.257 0.147z"></path>
<path fill="#5f6775" style="fill: var(--color29, #5f6775)" d="M3.215 14.168c0 0-0.876-0.258-1.427-0.29l1.427 0.29z"></path>
</symbol>
</defs>
</svg>
