<svg width="280" height="308" fill="none" xmlns="http://www.w3.org/2000/svg">
  <path d="M260.161 78.89c-24.114-35.526-84.705-91.825-176.884-55.551C-8.9 59.613 1.61 122.483 5.72 146.815c4.11 24.332 9.57 55.895 45.7 79.479 36.13 23.585 76.566 24.254 119.807 22.206 43.239-2.049 92.946-26.975 102.478-60.697 9.534-33.721 10.569-73.39-13.543-108.914Z" fill="#FD5103"/>
  <path d="M124.358 80.29s-9.392 5.957-8.965 7.02c.427 1.065 2.775 4.682 2.775 4.682s6.709 12.921 15.369 15.318c11.526 3.191 16.009-3.192 19.637-9.787 3.629-6.596 4.269-51.275 2.989-51.914-1.281-.638-8.111 2.979-10.246 11.915-2.134 8.937-3.842 26.596-5.123 27.66-1.281 1.063-12.166-2.129-12.166-2.129l-4.27-2.766Z" fill="#F2F0EB"/>
  <path d="M118.301 91.513s2.134.698 5.309-.54c5.157-2.014 4.629-7.164 4.629-7.164" stroke="#DCD8DA" stroke-width=".915" stroke-miterlimit="10"/>
  <path d="M98.957 77.098s-7.115-1.135-7.115 1.134c0 2.27 2.276 3.12 3.7 3.12 1.422 0 1.422 1.42 3.984 1.42 2.561 0 4.838.85 8.539.567 3.699-.284 7.684 2.553 7.684 2.553s1.424 3.191 6.475-.072c1.384-.893 2.562-2.128 2.349-3.616-.214-1.49-1.836-6.553-3.132-7.66-1.993-1.701-22.484 2.554-22.484 2.554Z" fill="#F5AA8A"/>
  <path d="M96.61 81.282s-.427-1.064 3.842-1.277c4.269-.213 10.459-.638 10.459-.638" stroke="#CB8469" stroke-width=".915" stroke-miterlimit="10" stroke-linecap="round" stroke-linejoin="round"/>
  <path d="M105.997 80.559c15.228 0 27.572-2.514 27.572-5.614 0-3.101-12.344-5.615-27.572-5.615s-27.573 2.514-27.573 5.615c0 3.1 12.344 5.614 27.573 5.614Z" fill="#93B3C5"/>
  <path d="M124.355 54.402c-8.229-6.52-18.358-5.68-18.358-5.68s-10.13-.84-18.359 5.68c-8.23 6.52-7.597 19.981-7.597 19.981s5.204 4.208 25.956 4.208c20.75 0 25.954-4.208 25.954-4.208s.634-13.46-7.596-19.981Z" fill="#A1C4DA"/>
  <path d="M118.194 52.958c-3.522-2.454-7.113-3.681-10.282-4.259a23.458 23.458 0 0 0-1.255-.006 24.976 24.976 0 0 1 6.539 4.472c8.431 7.987 7.783 24.478 7.783 24.478l-.006.005c4.338-.635 7.113-1.475 8.786-2.145-.663-4.072-3.342-16.816-11.565-22.545Z" fill="#B3D9ED"/>
  <path d="M106.707 48.692c-.457.01-.71.03-.71.03l-.25-.015a25.488 25.488 0 0 1 2.054 3.352c4.113 7.984 3.904 21.474 3.667 26.425 1.382-.056 2.668-.134 3.881-.225-.149-5.555-1.002-18.695-5.608-25.816-.99-1.528-2.015-2.756-3.034-3.75Z" fill="#B3D9ED"/>
  <path d="M107.621 47.767c0-2.257-.304-4.086-1.625-4.086-1.319 0-1.624 1.829-1.624 4.086 0 .891-.031 1.714.044 2.386a10.6 10.6 0 0 0 1.58.121c.546 0 1.074-.046 1.581-.121.075-.672.044-1.495.044-2.386Z" fill="#93B3C5"/>
  <path d="M148.345 241.201s2.823 1.022 6.644 1.306c3.818.286 9.226-.985 9.226-.985s1.475 8.339.874 13.266c-.303 2.475-1.912 2.917-5.155 4.991-2.033 1.305-4.813 4.134-7.996 5.792-3.38 1.752-12.075 1.721-15.538.077-7.27-3.447-4.617-7.242-.346-10.32 1.512-1.086 4.152-3.407 5.476-5.007 3.912-4.708 6.815-9.12 6.815-9.12Z" fill="#63363B"/>
  <path d="M153.803 247.787s-3.606-1.95-7.513-1.618M151.149 251.58s-3.603-1.955-7.511-1.619M164.676 253.184s-4.293 2.142-7.225 4.804c-2.93 2.659-5.383 6.018-9.23 6.982-3.845.966-12.386.592-16.226-2.799" stroke="#855E59" stroke-width=".868" stroke-miterlimit="10"/>
  <path d="M144.188 169.524c-.133-8.762-1.06-31.742.527-35.328 1.367-3.09 13.476-6.802 19.325-4.051 5.848 2.755 10.253 12.363 10.253 12.363s-.535 13.419-2.543 21.624c-2.007 8.206-5.828 24.544-5.828 24.544s3.689 9.747 2.986 18.711c-1.015 12.968-4.703 33.895-4.703 33.895s-3.196 1.362-7.926 1.265c-5.051-.105-8.139-.994-8.139-.994s.168-13.106-1.349-29.21c-.58-6.192-2.47-34.056-2.603-42.819Z" fill="#363B4E"/>
  <path d="M186.55 244.316s2.871.878 6.701.974c3.829.095 9.166-1.436 9.166-1.436s1.887 8.256 1.532 13.206c-.179 2.486-1.765 3.008-4.901 5.236-1.966 1.404-4.605 4.37-7.699 6.18-3.292 1.917-11.976 2.316-15.517.845-7.432-3.085-4.969-7.005-.857-10.29 1.454-1.162 3.976-3.61 5.22-5.271a115.014 115.014 0 0 0 6.355-9.444Z" fill="#63363B"/>
  <path d="M192.328 250.62s-3.696-1.768-7.582-1.245M189.866 254.541s-3.695-1.774-7.582-1.247M203.455 255.479s-4.18 2.351-6.976 5.152c-2.793 2.801-5.078 6.277-8.871 7.429-3.795 1.151-12.343 1.201-16.346-1.994" stroke="#855E59" stroke-width=".868" stroke-miterlimit="10"/>
  <path d="M171.862 170.902c-1.473-23.616-.346-30.578 1.062-34.238 1.211-3.154 14.319-6.598 20.294-4.136 5.978 2.463 10.856 11.84 10.856 11.84s.516 11.461-.291 17.732c-.808 6.272-4.528 27.99-4.528 27.99s3.988 9.557 3.73 18.545c-.369 12.999-.589 34.98-.589 34.98s-3.122 1.517-7.853 1.652c-5.051.142-8.179-.593-8.179-.593s-5.719-18.831-8.033-34.843c-.887-6.156-5.608-25.143-6.469-38.929Z" fill="#363B4E"/>
  <path d="M204.475 106.882c.291-5.56-.355-8.151.782-17.872.7-5.986 4.055-15.319 4.481-21.914.428-6.596 2.272-15.836-3.414-20-5.688-4.164-23.577-7.152-30.516-7.209-6.941-.058-12.815.614-19.219 4.017-7.06 3.754-6.938 9.878-7.898 20.213-.108 1.154-1.02 13.252-1.19 17.944-.404 11.144-.983 20.753-2.257 26.869-1.275 6.118-3.367 29.38-3.382 30.859 0 0 5.123 4.822 9.677 5.957 4.553 1.134 8.798 1.692 14.799 2.553 1.174.168 2.847-8.511 2.847-8.511l2.56 9.361s10.247 1.703 18.215.568c7.969-1.136 17.36-5.958 17.36-5.958s-3.136-31.316-2.845-36.877Z" fill="#3E4858"/>
  <path d="M188.499 43.914S170.612 96.041 168.844 96.6c-1.768.56-7.136-22.443-7.202-37.83-.067-15.386 2.282-18.729 2.282-18.729l24.575 3.873Z" fill="#F2F0EB"/>
  <path d="M171.176 54.402s-2.561 12.199-2.561 19.858c0 7.66.239 19.986.239 19.986" stroke="#DCD8DA" stroke-width=".915" stroke-miterlimit="10"/>
  <path d="M164.555 79.804c.945 10.417 4.446 17.68 3.776 18.288-.67.607-4.839-7.66-6.833-12.483-1.323-3.202-4.009-13.083-4.621-17.65-.612-4.568 2.829-9.358 2.829-9.358s-2.487-3.532-2.209-6.595c.279-3.063 1.41-8.542 2.293-9.8 1.495-2.128 5.335-2.981 5.335-2.981s-1.515 30.162-.57 40.58Z" fill="#363B4E"/>
  <path d="M188.017 40.64s5.646.077 6.664 1.428c1.016 1.353-.667 8.632-1.065 12.077-.397 3.446-5.746 5.985-5.746 5.985s3.542 5.837.714 11.304c-3.384 6.54-17.948 28.293-20.255 26.655-1.309-.929 6.943-15.382 12.789-33.543 4.443-13.799 6.899-23.906 6.899-23.906Z" fill="#363B4E"/>
  <path d="M184.536 36.56s2.958 1.627 3.757 2.99c.798 1.362.206 4.364.206 4.364s-1.787 5.106-3.863 7.382c-2.076 2.277-7.297 6.555-7.297 6.555l-5.391-9.161 12.588-12.13Z" fill="#fff"/>
  <path d="M168.765 36.825s-3.206.987-3.761 2.189c-.555 1.2-1.055 4.711-1.055 4.711s.223 3.478.716 5.671c.548 2.434 2.647 7.503 2.647 7.503l5.025-7.322-3.572-12.752Z" fill="#fff"/>
  <path d="M170.891 48.58s-6.798-5.463-7.454-2.193c-.656 3.27-1.081 8.887 1.231 8.911 2.314.024 5.251-2.97 5.251-2.97l.972-3.747ZM173.045 49.092s7.663-4.166 7.726-.832c.061 3.336-.522 8.938-2.803 8.55-2.28-.39-4.636-3.857-4.636-3.857l-.287-3.86Z" fill="#A4273B"/>
  <path d="M171.634 48.285c-1.425.084-2.232.372-2.401 1.77-.171 1.396-.671 3.397.311 3.775.983.377 3.772.715 4.15-.268.378-.985.276-3.317.226-3.968-.05-.651-.861-1.394-2.286-1.31Z" fill="#BD273B"/>
  <path d="M170.623 108.15a1.41 1.41 0 0 0 1.336 1.477 1.406 1.406 0 1 0 .147-2.809 1.41 1.41 0 0 0-1.483 1.332ZM170.979 122.142a1.41 1.41 0 0 0 2.818.147 1.411 1.411 0 0 0-2.818-.147ZM171.125 136.015a1.41 1.41 0 0 0 1.336 1.478 1.406 1.406 0 1 0 .147-2.809 1.41 1.41 0 0 0-1.483 1.331Z" fill="#B77E20"/>
  <path d="M167.902 99.861c-.427 8.086-.858 11.092-.71 17.801.129 5.857 1.736 23.46 1.736 23.46" stroke="#59636D" stroke-width=".93" stroke-miterlimit="10"/>
  <path d="m167.393 32.096 16.811-4.22 1.795 12.335s-1.589 1.334-4.225 3.4c-2.637 2.064-9.426 5.748-9.426 5.748s-2.808-3.278-3.893-4.535c-1.085-1.258-2.333-4.77-2.333-4.77l1.271-7.958Z" fill="#F5AA8A"/>
  <path d="M163.949 6.831c3.618-6.098 13.053-6.068 17.867-3.25 7.398 4.331 8.148 14.329 5.431 23.049-1.489 4.79-3.771 7.973-7.817 10.185-8.787 4.806-14.34.845-16.08-1.985-1.93-3.16-2.735-10.947-2.663-13.925.1-4.361-.357-7.97 3.262-14.074Z" fill="#F5AA8A"/>
  <path d="M166.586 22.722c-.053.795-.715 1.394-1.477 1.342-.767-.053-1.343-.738-1.291-1.53.06-.788.722-1.39 1.484-1.338.76.05 1.337.735 1.284 1.526ZM177.761 23.588c-.05.793-.711 1.393-1.477 1.34-.764-.05-1.339-.734-1.285-1.527.055-.79.719-1.392 1.481-1.337.765.05 1.339.733 1.281 1.524Z" fill="#411B00"/>
  <path d="M181.217 19.596c-1.96-1.311-5.443-1.774-7.259-.005-.168.165-.046.483.197.474.781-.028 1.561.072 2.365.013 1.376-.103 2.776.023 3.979.742.793.474 1.471-.72.718-1.224ZM163.124 19.514c.545-.44 1.784-.3 2.419-.244.774.069 1.826.193 2.549.46.193.072.41-.15.342-.341-.758-2.13-4.783-2.274-6.316-.878-.688.627.309 1.566 1.006 1.003Z" fill="#592221"/>
  <path d="M171.476 30.745s-.229-.018-.612-.125a5.78 5.78 0 0 1-1.521-.665 4.98 4.98 0 0 1-.904-.729c-.292-.326-.553-.673-.751-1.218a2.939 2.939 0 0 1-.084-.309c-.021-.15-.05-.313-.047-.462 0-.293.054-.612.184-.89.249-.575.684-.91 1.016-1.2.336-.286.649-.525.836-.76l.07-.089-.02.04.002-.004.004-.01.009-.017.019-.035.035-.071c.06-.106.072-.165.098-.232.047-.128.113-.338.159-.513.105-.367.168-.748.242-1.105.071-.36.133-.704.184-1.024l.278-1.555.117-.595s.207.865.293 2.186c.035.663.063 1.433-.035 2.292-.028.224-.046.42-.124.692-.038.133-.08.278-.118.361l-.03.074-.015.037-.007.019-.004.01-.028.053-.104.179c-.29.48-.672.79-.987 1.074-.315.279-.553.54-.659.753a.804.804 0 0 0-.085.339c-.006.06.008.104.002.158.01.079.046.194.061.29.047.233.205.566.377.822.163.281.387.52.587.752.412.457.818.816 1.102 1.073l.46.404Z" fill="#D27D73"/>
  <path d="M160.945 10.892c.264-.61-.433-3.76.201-5.236.632-1.473 3.915-3.152 7.553-4.432 3.814-1.338 8.185-1.695 13.19-.486 5 1.212 9.477 4.471 9.434 9.78-.031 4.454-.691 11.873-1.635 12.25-.949.376-4.484 1.69-4.484 1.69s-2.141-5.177-1.505-6.652c.632-1.472-1.448-6.375-2.413-6.709-.784.035-6.884 1.816-10.625 1.896-3.739.075-5.853-2.831-5.872-2.81 0 0-1.218 1.477-1.97 2.758s-2.181 4.998-2.181 4.998-.779-.813-.769-2.82c.008-2.008.521-2.92 1.076-4.227Z" fill="#592221"/>
  <path d="M183.848 25.21s4.732-5.2 5.401-1.587c.927 5.024-1.196 6.853-5.978 7.518" stroke="#D3ECFE" stroke-width="1.973" stroke-miterlimit="10" stroke-linecap="round" stroke-linejoin="round"/>
  <path d="M187.28 19.688c2.964-1.03 4.541 2.446 3.391 6.488-.722 2.537-4.219 3.702-5.692 2.978.117-2.584-.439-8.513 2.301-9.466Z" fill="#F5AA8A"/>
  <path d="M171.09 25.866c8.451.26 12.876-1.432 12.876-1.432s1.604 8.924-1.541 11.6c-2.946 2.505-8.128 4.372-12.972 3.374-4.843-.997-6.548-4.383-7.731-7.026-1.187-2.643-1.211-8.651-1.211-8.651s2.124 1.876 10.579 2.135Z" fill="#D3ECFE"/>
  <path d="M161.687 25.79s2.504 1.944 8.584 2.19c6.402.257 12.626-1.91 12.626-1.91l.174 1.652s-8.482 1.851-12.526 1.525c-4.041-.327-8.556-1.62-8.556-1.62l-.302-1.837ZM162.411 30.787s2.32 1.432 8.023 1.668c6.003.242 12.491-1.879 12.491-1.879l-.115 1.555s-8.327 1.814-12.116 1.508c-3.793-.302-8.025-1.518-8.025-1.518l-.258-1.334ZM181.892 34.655c-2.337.611-6.63 1.539-10.706 1.37-4.218-.17-6.58-.998-7.53-1.418.11.42.235.838.371 1.253 1.302.344 4.49 1.12 7.414 1.354 2.555.204 7.156-.55 9.894-1.064.265-.381.433-.913.557-1.495Z" fill="#B1D7DE"/>
  <path d="M170.391 107.907s-10.017-5.08-15.647-2.243c-5.629 2.838-7.904 6.751-8.376 8.496-.962 3.538 1.267 3.218 1.267 3.218s-.452.748.416 1.6c.87.855 1.609 1.128 1.609 1.128s.166 1.324.55 1.588c.382.266.745.41 1.038.376 1.197-.137 7.829-4.858 10.953-5.808 1.316-.401 2.724.697 4.393 1.052 2.299.489 4.982-1.366 4.982-1.366s.972-5.762-1.185-8.041Z" fill="#F5AA8A"/>
  <path d="M152.941 109.186s-2.107 1.664-3.227 3.616c-1.121 1.951-2.079 4.578-2.079 4.578M156.497 110.65s-2.162.423-3.543 2.584c-1.382 2.161-3.255 6.202-3.255 6.202M150.016 120.468s3.343-3.238 4.927-4.745c1.33-1.262 4.005-1.878 4.005-1.878" stroke="#CB8469" stroke-width=".915" stroke-miterlimit="10" stroke-linecap="round" stroke-linejoin="round"/>
  <path d="M203.002 47.961c-3.189.695-7.228 5.73-8.491 14.832-1.264 9.101-4.156 26.671-4.484 28.38-.326 1.708-4.556 3.91-8.147 6.1-2.032 1.24-9.064 6.542-9.064 6.542l-4.667 1.784s1.57 4.228 2.248 6.344c.677 2.116.955 5.729.955 5.729l4.247-1.09s7.569-.749 11.714-1.742c7.653-1.836 19.272-4.664 21.465-9.526 2.193-4.862 3.536-25.597 4.261-32.845.729-7.248-.524-17.653-2.284-20.6-1.757-2.95-4.562-4.602-7.753-3.908Z" fill="#F2F0EB"/>
  <path d="M172.688 103.817s1.475 2.818 2.25 6.358c.775 3.54.345 6.153.345 6.153" stroke="#DCD8DA" stroke-width=".915" stroke-miterlimit="10"/>
  <path d="M179.806 112.844a1.064 1.064 0 0 1-1.049 1.082 1.065 1.065 0 1 1-.037-2.127c.59-.01 1.076.457 1.086 1.045Z" fill="#DCD8DA"/>
  <path d="M176.157 103.543c1.732 1.388 6.283 1.309 5.899 11.813-.384 10.505-.923 28.389-1.408 33.221-.485 4.831-1.546 9.106.74 9.634 2.286.528 4.243-1.493 4.243-1.493s1.747 2.239 5.441 1.89c3.694-.348 4.219-2.91 6.496-2.95 2.275-.039 3.68-1.199 5.067-3.21 1.387-2.01 2.287-15.644 2.156-23.019-.128-7.375-2.177-26.632-5.955-31.105-3.779-4.474-9.354-5.866-10.639-6.057-1.284-.19-2.294 1.051-5.36 2.647-.811.423-2.522 2.314-2.522 2.314s-3.12.623-4.517 2.065c-1.398 1.444-1.373 2.862.359 4.25Z" fill="#E9DBDA"/>
  <path d="M183.016 101.083c2.198 3.579 4.604 10.914 4.221 21.418-.386 10.505-1.07 32.221-1.07 32.221M185.907 95.5s5.601 2.88 7.696 12.845c2.099 9.965 2.303 21.665 2.179 26.774-.123 5.11.131 19.575.131 19.575M195.491 106.398s3.055 15.907 2.961 22.717c-.084 6.173.019 25.322.019 25.322" stroke="#D8BBBD" stroke-width=".915" stroke-miterlimit="10"/>
  <path d="M11.877 243.419c-.724 7.935-4.703 27.41-5.79 31.378-.955 3.497-1.808 5.771 1.81 5.41 3.62-.36 4.342-1.082 6.514-7.214 2.17-6.131 5.237-22.026 6.513-30.294 1.447-9.378 2.171-34.624 2.171-34.624h-9.77c0-.001-.724 27.41-1.447 35.344ZM48.694 197.976c-.216 7.49-.786 25.843-1.356 32.098-.724 7.935-4.704 27.41-5.79 31.378-.957 3.497-1.809 5.771 1.81 5.41 3.618-.36 4.342-1.081 6.513-7.213 2.172-6.131 5.237-22.028 6.514-30.296 1.128-7.309 1.816-24.256 2.065-31.377h-9.756ZM77.624 243.419c-.724-7.935-1.448-35.345-1.448-35.345h-9.769s.725 25.246 2.172 34.624c1.276 8.268 4.342 24.164 6.513 30.294 2.172 6.132 2.895 6.854 6.514 7.214 3.618.361 2.766-1.913 1.81-5.41-1.088-3.966-5.068-23.442-5.792-31.377ZM104.038 230.074c-.572-6.256-1.141-24.609-1.357-32.098h-9.754c.249 7.121.937 24.069 2.065 31.377 1.276 8.268 4.342 24.164 6.513 30.296 2.171 6.132 2.895 6.853 6.513 7.213 3.619.361 2.767-1.913 1.809-5.41-1.085-3.968-5.065-23.443-5.789-31.378Z" fill="#433431"/>
  <path d="M35.759 123.442s-22.073-1.202-27.5 0c-3.898.864-10.132 2.405-7.72 11.542 2.414 9.137 6.755 40.394 7.236 53.377.483 12.984.484 23.564 6.756 25.007 6.272 1.442 54.034 0 54.034 0s8.202 0 18.334-3.847c10.132-3.848 16.403-6.252 16.403-6.252s6.271-3.847-6.271-5.289c-12.545-1.443-54.999.48-54.999.48l-6.273-75.018Z" fill="#563E3E"/>
  <path d="M97.03 197.979c-12.544-1.443-54.998.48-54.998.48l-6.272-75.018s-22.073-1.202-27.5 0c-.52.116-1.087.245-1.665.402-.568 1.572-.641 3.654.097 6.451 2.414 9.136 6.755 40.394 7.237 53.378.174 4.705.482 9.257.656 12.847.321 6.628.189 12.278.189 12.278s19.922-1.541 23.156-1.442c14.966.455 37.27.361 37.27.36 0 0 7.72.962 17.85-2.884 4.826-1.833 8.762-3.333 11.576-4.407-.633-.932-2.647-1.876-7.596-2.445Z" fill="#6E5550"/>
  <path d="M71.588 137.483s1.3 7.402 1.857 11.288c.557 3.886.928 13.508.928 13.508l3.342.741.933 6.974s-11.144 3.944-14.857.058c-3.713-3.887-2.042-33.864-2.042-33.864l9.84 1.295Z" fill="#F5AA8A"/>
  <path d="M67.69 162.651s3.655-.742 6.498-.185" stroke="#DC8C7A" stroke-width=".939" stroke-miterlimit="10"/>
  <path d="m109.924 232.172 5.644 21.338 12.863-2.284-4.71-22.346-13.797 3.292Z" fill="#E49E80"/>
  <path d="M59.088 172.311s50.984-5.764 56.98 5.657c5.995 11.419 12.016 57.711 10.906 59.363-1.11 1.651-16.818 3.352-17.339 1.574-.95-3.245-9.868-36.773-12.366-40.044-2.493-3.27-22.17 2.124-31.931 2.468-10.125.361-24.759 2.609-28.374-3.176-3.373-5.4-3.063-21.175-3.063-21.175l25.187-4.667Z" fill="#448294"/>
  <path d="M41.248 194.247s.326.232.934.6" stroke="#30A1B6" stroke-width=".915" stroke-miterlimit="10"/>
  <path d="M43.489 195.597c4.006 2.171 12.932 5.962 23.083 3.539 13.797-3.294 32.97-8.69 35.381-3.24 2.084 4.706 9.682 31.511 11.716 38.735" stroke="#30A1B6" stroke-width=".915" stroke-miterlimit="10" stroke-dasharray="2.79 1.86"/>
  <path d="m113.874 235.359.299 1.066" stroke="#30A1B6" stroke-width=".915" stroke-miterlimit="10"/>
  <path d="m86.011 240.634 2.675 21.93 13.052-.417-1.612-22.795-14.115 1.282Z" fill="#F5AA8A"/>
  <path d="M43.184 175.418s49.508 3.475 55.323 13.323c6.576 11.136 5.012 57.962 3.688 59.44-1.327 1.475-17.105.505-17.38-1.33-.498-3.348-5.587-35.815-7.612-39.408-2.025-3.594-17.806-2.169-29.688-1.923-5.212.108-14.307.047-19.06-1.48-4.491-1.443-8.71-4.506-10.065-7.539-2.602-5.829-.141-21.401-.141-21.401l24.935.318Z" fill="#4C96A6"/>
  <path d="M33.595 179.416s-1.45 8.037-12.399 8.834M23.167 193.249s.29.275.84.725" stroke="#6BBACA" stroke-width=".915" stroke-miterlimit="10"/>
  <path d="M25.191 194.896c3.666 2.722 11.995 7.765 22.391 6.82 14.115-1.283 31.706-1.94 33.35 3.801 1.414 4.931 5.696 30.526 6.876 37.64" stroke="#6BBACA" stroke-width=".915" stroke-miterlimit="10" stroke-dasharray="2.78 1.86"/>
  <path d="m87.93 243.901.181 1.094" stroke="#6BBACA" stroke-width=".915" stroke-miterlimit="10"/>
  <path d="M128.588 250.221s8.978 5.869 17.754 11.088c3.41 2.027 6.536 5.736 2.828 8.712-1.841 1.477-11.809 3.533-18.535.502-7.663-3.449-14.244-3.182-16.459-5.771-2.213-2.591.789-12.246.789-12.246l13.623-2.285Z" fill="#FD5103"/>
  <path d="M130.747 259.013s-6.386-2.805-8.733-6.031l8.733 6.031Z" fill="#FD5103"/>
  <path d="M130.747 259.013s-6.386-2.805-8.733-6.031" stroke="#A16529" stroke-width=".915" stroke-miterlimit="10"/>
  <path d="M149.452 266.169s-1.805 2.225-6.434 2.745c-4.624.523-7.407.498-11.482-.757-4.072-1.258-6.308-3.057-9.696-3.823-3.389-.769-6.172-.792-7.718-2.103" fill="#FD5103"/>
  <path d="M149.452 266.169s-1.805 2.225-6.434 2.745c-4.624.523-7.407.498-11.482-.757-4.072-1.258-6.308-3.057-9.696-3.823-3.389-.769-6.172-.792-7.718-2.103" stroke="#A16529" stroke-width=".915" stroke-miterlimit="10"/>
  <path d="M102.184 261.248s7.41 7.745 14.769 14.81c2.863 2.747 5.063 7.065.775 9.127-2.13 1.02-12.305.77-18.169-3.703-6.676-5.091-13.147-6.317-14.712-9.338-1.568-3.023 3.55-11.749 3.55-11.749l13.787.853Z" fill="#FD5103"/>
  <path d="M102.288 270.297s-5.582-4.173-7.136-7.848M118.879 281.494s-2.265 1.759-6.89 1.223c-4.624-.539-7.327-1.193-11.011-3.338-3.684-2.144-5.447-4.399-8.574-5.913-3.127-1.512-5.831-2.163-7.04-3.789" stroke="#A16529" stroke-width=".915" stroke-miterlimit="10"/>
  <path d="M102.362 244.795s-3.225 1.573-8.483 1.321c-5.261-.252-9.48-2.105-9.48-2.105s-1.474 2.835-.14 4.743c1.333 1.908 4.487 2.933 9.64 3.494 5.145.561 8.669-.899 9.525-2.851.849-1.948-1.062-4.602-1.062-4.602Z" fill="#8DB1CC"/>
  <path d="M127.072 234.263s-2.821 2.214-8.015 3.071c-5.196.858-9.889-1.023-9.889-1.023s-.667 4.032 1.042 5.62c1.708 1.585 5.004 1.925 10.159 1.393 5.153-.532 8.29-2.698 8.711-4.784.421-2.085-2.008-4.277-2.008-4.277Z" fill="#88A5BD"/>
  <path d="M28.568 182.202c-3.525 1.845-9.418 4.222-11.286 5.464-1.87 1.243-2.689-3.614-2.441-6.081.247-2.467.99-4.441.99-4.441s-.36-6.729-.176-9.616c.198-3.13.374-6.165.379-8.745.04-15.81-2.183-39.621 2.644-47.393 4.827-7.772 16.955-9.993 29.704-9.623 12.748.37 19.183 5.799 20.669 11.473 1.485 5.675 2.723 13.57 2.723 16.531 0 2.961 1.732 7.156.99 8.142-.743.987-5.199 1.481-5.199 1.481s-1.68 9.484-1.732 12.089c-.247 12.09-.256 20.343-.256 20.343s-11.044 2.202-17.76 3.728c-6.715 1.525-12.694 3.215-19.25 6.648Z" fill="#5F6775"/>
  <path d="M65.09 111.514s1.733 6.168 1.98 10.362c.248 4.195 1.238 14.311.495 17.519" fill="#5F6775"/>
  <path d="M65.09 111.514s1.733 6.168 1.98 10.362c.248 4.195 1.238 14.311.495 17.519" stroke="#5F6DA2" stroke-width=".915" stroke-miterlimit="10"/>
  <path d="M16.326 178.378s12.624-5.921 23.763-7.895l-23.763 7.895Z" fill="#5F6775"/>
  <path d="M16.326 178.378s12.624-5.921 23.763-7.895" stroke="#5F6DA2" stroke-width=".915" stroke-miterlimit="10"/>
  <path d="m53.788 95.88.466 6.441s.396 6.657-5.447 7.402c-5.84.746-10.253-7.872-10.253-7.872l-.016-10.604 15.25 4.634Z" fill="#F5AA8A"/>
  <path d="M58.171 69.734s5.258 3.002 5.136 10.186c-.125 7.184-3.178 7.628-5.633 5.881-2.456-1.745-9.976-10.671-9.976-10.671l3.155-8.154 7.318 2.758Z" fill="#592C30"/>
  <path d="M59.329 74.136c2.954 8.17 2.598 24.488-6.066 25.474-8.664.987-13.618-.001-17.878-13.45-4.262-13.453 3.385-19.056 6.857-19.733 2.699-.526 14.124-.46 17.087 7.709Z" fill="#F5AA8A"/>
  <path d="M44.788 85.227a1.321 1.321 0 0 0 1.675.82 1.316 1.316 0 0 0 .82-1.67 1.32 1.32 0 0 0-1.675-.818 1.312 1.312 0 0 0-.82 1.668ZM56.18 84.743c.25.73 1.01 1.13 1.701.898.687-.236 1.045-1.017.795-1.749-.25-.73-1.013-1.13-1.702-.895-.689.232-1.044 1.017-.795 1.746Z" fill="#522C31"/>
  <path d="M51.836 82.035c.319.67.57 1.353.787 2.042.119.342.202.69.305 1.035.105.345.172.696.26 1.044l-.282-.423c.322.179.597.37.879.584.278.213.557.432.81.698.129.127.25.275.371.424.117.163.236.313.334.52.103.186.195.424.21.71.027.269-.059.634-.24.856l-.137.172-.036.04-.046.042-.003.002-.006.005-.013.009-.05.035-.202.143-.417.27c-.146.088-.263.188-.432.265l-.49.222a6.318 6.318 0 0 1-.971.373 7.183 7.183 0 0 1-.994.236c.261-.222.514-.444.772-.652.266-.2.497-.423.736-.618l.353-.295c.121-.083.235-.224.353-.334l.35-.35.182-.167.046-.043.011-.01.006-.005.003-.002.002-.002-.042.038v-.009c.001-.012.003-.02.006-.028.02-.013.005-.027 0-.033.01.001-.01-.024-.015-.041.007-.011-.023-.054-.037-.088a.45.45 0 0 0-.064-.128c-.043-.091-.136-.198-.214-.3-.092-.102-.184-.205-.293-.306a9.362 9.362 0 0 0-.669-.607c-.236-.194-.495-.388-.725-.57l-.263-.205-.02-.217c-.035-.357-.089-.71-.107-1.07-.02-.36-.058-.716-.06-1.078-.03-.718-.023-1.445.052-2.184Z" fill="#D27D73"/>
  <path d="m59.73 82.203.156-.02c.489-.059.639-.598.244-.895-.968-.729-3.264-1.137-4.245-.284-.362.315-.03.79.35.84.56.074 1.142-.13 1.723-.085.635.048 1.189.271 1.8.406l-.115-.878-.139.084c-.347.213-.24.888.226.832ZM48.658 81.11c-.44-.57-1.479-.588-2.126-.656-1.081-.115-2.498.093-3.348.799-.177.147-.144.437 0 .59a43.11 43.11 0 0 0-.01-.114c-.013.083.008.189.095.229l.076.035c.206.097.403.013.484-.196l.054-.138-.404.305c.942.05 1.798-.515 2.753-.505.323.003.648.046.97.076.159.016.862.057.844.044.31.245.905-.088.612-.469Z" fill="#592C30"/>
  <path d="M54.341 92.26c-.515.179-2.397.284-2.796.24-1.988-.217-3.185-2.453-4.066-1.85-.88.603-1.908 4.035 1.28 5.02 4.232 1.309 5.582-3.41 5.582-3.41Z" fill="#fff"/>
  <path d="M54.045 99.52s-3.8 1.06-6.513.504c-2.712-.556-4.227-1.322-4.227-1.322" stroke="#CB8469" stroke-width=".915" stroke-miterlimit="10" stroke-linecap="round" stroke-linejoin="round"/>
  <path d="M62.106 69.091c-2.576-2.5-4.666-2.749-4.666-2.749s-2.463-4.327-7.943-5.61c-5.48-1.283-8.456 3.364-8.456 3.364s-4.825-1.27-7.785 2.722c-2.963 3.995-1.438 10.206 3.16 11.157 4.599.952 6.664-4.17 6.664-4.17s5.593 2.198 8.226 1.597c2.635-.603 4.53-2.924 4.53-2.924s2.098 5.926 6.165 4.893c3.024-.77 2.676-5.78.105-8.28Z" fill="#592C30"/>
  <path d="M33.806 70.207s-5.088 3.146-4.935 7.338c.152 4.191 2.86 6.32 2.86 6.32s2.84.635 3.902 2.572c1.06 1.937 2.545 1.883 3.499.861.278-.297.214-3.281.214-3.281s.835-1.94.728-4.9c-.107-2.959-.736-6.64-.736-6.64l-5.532-2.27Z" fill="#592C30"/>
  <path d="M37.133 85.322c-.687-2.699-5.445-4.002-5.993-.758-.55 3.245 2.127 7.093 5.286 7.434 3.159.337 1.396-3.982.707-6.676ZM98.235 168.045c-.504-2.259-2.829-4.977-4.792-5.578-2.65-.811-7.136-2.183-9.807-1.453-.922.252-5.377.792-6.998 1.777-1.622.985-.24 5.722 1.184 7.176.498.01 1.018.018 1.568.024 2.248.029 6.193.576 7.193.681 1.728.181 3.547 1.772 4.464.168.916-1.603-2.225-2.697-1.125-2.827.559-.066 1.696.018 2.659 1.109.936 1.062 1.81 2.067 2.435 2.613 1.528 1.336 2.538-1.182 2.538-1.182s1.175-.294.68-2.508Z" fill="#F5AA8A"/>
  <path d="M97.177 169.902s-1.247-2.55-3.097-4.002c-1.849-1.454-5.106-1.468-5.106-1.468M89.67 168.176c-.627-.894-3.745-1.641-4.72-1.497" stroke="#DC8C7A" stroke-width=".939" stroke-miterlimit="10"/>
  <path d="M172.245 287.62c0 3.573-11.442 4.879-25.556 4.879-14.117 0-25.555-1.306-25.555-4.879 0-3.577 11.438-6.475 25.555-6.475 14.114 0 25.556 2.898 25.556 6.475Z" fill="#6E5550"/>
  <path d="M143.074 173.414v110.124h.016c.075 1.111 1.652 2.003 3.599 2.003 1.946 0 3.524-.892 3.598-2.003h.016V173.414h-7.229Z" fill="#433431"/>
  <path d="M146.69 172.584H63.842s.042 2.492.085 4.623c.033 1.576.481 2.572 1.514 3.215.784.488 3.636 1.26 9.8 1.662 19.428 1.266 58.182.542 71.449.648 13.267-.106 52.021.618 71.449-.648 6.165-.402 9.017-1.174 9.8-1.662 1.033-.643 1.48-1.638 1.514-3.215.044-2.131.085-4.623.085-4.623H146.69Z" fill="#957765"/>
  <path d="M146.69 170.744c-17.537.054-82.848.507-82.848 1.839 0 1.332 7.532 2.569 82.848 2.569 75.318 0 82.848-1.236 82.848-2.569 0-1.332-65.31-1.785-82.848-1.839Z" fill="#AE8B76"/>
  <path d="M169.039 171.823c0 .946-5.498 1.712-12.282 1.712-6.783 0-12.282-.766-12.282-1.712 0-.945 5.499-1.712 12.282-1.712s12.282.767 12.282 1.712Z" fill="#F3F3F3"/>
  <path d="M156.757 172.693c4.754 0 8.607-.482 8.607-1.077s-3.853-1.077-8.607-1.077c-4.753 0-8.606.482-8.606 1.077s3.853 1.077 8.606 1.077Z" fill="#D7D7D7"/>
  <path d="M156.757 158.753c-6.142 0-9.4.947-9.4.947 0 2.208 2.13 8.203 3.509 9.306 1.379 1.105 3.208 1.757 5.892 1.757 2.683 0 4.512-.652 5.891-1.757 1.378-1.103 3.509-7.098 3.509-9.306-.001 0-3.261-.947-9.401-.947Z" fill="#FBFBFB"/>
  <path d="M147.567 159.936c0 .342 4.115.619 9.19.619 5.076 0 9.19-.277 9.19-.619 0-.342-4.114-.936-9.19-.936-5.075 0-9.19.594-9.19.936Z" fill="#EEE"/>
  <path d="M163.45 168.8c-.604 0-.985-.093-1.023-.103l.204-.874c.018.004 1.931.455 4.083-.94 1.302-.844 2.167-2.075 2.259-3.212.052-.645-.16-1.207-.612-1.626-1.256-1.161-2.837.141-2.853.154l-.539-.702c.743-.623 2.525-1.451 3.96-.126.656.606.976 1.449.9 2.376-.114 1.416-1.135 2.911-2.664 3.901-1.467.953-2.831 1.152-3.715 1.152Z" fill="#FBFBFB"/>
  <path d="M156.757 169.836c-4.983 0-7.606-4.424-8.314-5.448.726 2.052 1.674 4.029 2.408 4.617a49.733 49.733 0 0 1 1.613 1.338c-.851.192-1.37.44-1.37.712 0 .605 2.536 1.095 5.663 1.095 3.127 0 5.662-.49 5.662-1.095 0-.272-.517-.52-1.368-.712.276-.242.784-.674 1.612-1.338.734-.588 1.682-2.565 2.407-4.617-.707 1.024-3.331 5.448-8.313 5.448Z" fill="#EEE"/>
  <path d="M98.987 172.319c0 .946-5.498 1.712-12.282 1.712-6.783 0-12.282-.766-12.282-1.712 0-.945 5.5-1.712 12.282-1.712 6.784 0 12.282.767 12.282 1.712Z" fill="#F3F3F3"/>
  <path d="M95.312 172.112c0 .595-3.853 1.077-8.607 1.077-4.752 0-8.607-.482-8.607-1.077 0-.594 3.854-1.077 8.607-1.077 4.753.001 8.607.483 8.607 1.077Z" fill="#D7D7D7"/>
  <path d="M221.376 222.401c.216 7.49.787 25.844 1.357 32.099.723 7.935 4.704 27.41 5.789 31.378.957 3.497 1.809 5.771-1.809 5.41-3.618-.36-4.342-1.082-6.513-7.213-2.172-6.131-5.237-22.028-6.513-30.296-1.128-7.309-1.816-24.255-2.065-31.378h9.754Z" fill="#433431"/>
  <path d="M203.727 267.73s.237 2.159-.116 4.666c-.292 2.066-1.248 4.295-2.559 6.728-1.21 2.242-3.213 3.663-5.151 7.055-1.492 2.614.17 5.498 2.691 6.393 4.676 1.664 12.289-3.252 14.649-7.737 2.29-4.35 5.283-6.656 7.786-8.063 2.505-1.405 4.308-5.433 1.657-8.518-1.052-1.227-2.819-2.832-4.756-4.632-2.289-2.132-3.959-4.024-3.959-4.024l-10.242 8.132Z" fill="#323D67"/>
  <path d="M207.308 279.349c3.702-3.435 5.651-7.825 8.339-10.824 1.476-1.647 2.524-3.075 2.384-4.809l-.103-.094a64.114 64.114 0 0 1-3.959-4.024l-10.243 8.131s.238 2.159-.116 4.666c-.292 2.066-1.247 4.295-2.559 6.728-.23.427-.488.821-.769 1.208.919 1.495 3.928 1.891 7.026-.982Z" fill="#DBA990"/>
  <path d="M180.62 206.535c-4.726.054-7.495 1.51-8.247 9.699-.751 8.19 16.344 36.894 18.809 42.387 2.463 5.492 5.086 11.569 5.086 11.569s6.469.179 11.412-2.634c4.945-2.814 9.809-8.356 9.809-8.356s-13.025-26.064-16.137-31.312c-3.112-5.248-9.764-15.416-9.764-15.416s-6.241-5.99-10.968-5.937Z" fill="#212A3F"/>
  <path d="M180.194 277.158s-.217 2.163-1.085 4.541c-.715 1.96-2.114 3.945-3.903 6.053-1.65 1.945-3.904 2.919-6.507 5.838-2.003 2.245-.977 5.412 1.302 6.809 4.229 2.596 12.699-.638 15.941-4.539 3.145-3.783 6.552-5.42 9.295-6.277 2.743-.857 5.346-4.424 3.393-7.992-.774-1.414-2.168-3.351-3.687-5.512-1.797-2.561-3.036-4.757-3.036-4.757l-11.713 5.836Z" fill="#43528B"/>
  <path d="M181.279 289.265c4.337-2.594 7.157-6.484 10.41-8.863 1.787-1.307 3.109-2.486 3.334-4.211l-.081-.112c-1.797-2.561-3.035-4.757-3.035-4.757l-11.712 5.837s-.217 2.163-1.085 4.541c-.715 1.96-2.115 3.945-3.904 6.053-.312.369-.648.703-1.002 1.022.586 1.652 3.448 2.66 7.075.49Z" fill="#F5AA8A"/>
  <path d="M170.325 212.52c-4.634-.925-7.645-.074-10.085 7.783-2.439 7.855 8.311 39.471 9.578 45.353a1052.602 1052.602 0 0 1 2.569 12.368s6.289 1.514 11.711-.217c5.421-1.729 11.332-6.144 11.332-6.144s-7.316-28.191-9.267-33.968c-1.953-5.777-6.344-17.099-6.344-17.099s-4.859-7.153-9.494-8.076Z" fill="#344163"/>
  <path d="M258.194 265.624c.722 7.935 4.702 27.41 5.788 31.378.956 3.497 1.809 5.771-1.81 5.41-3.619-.36-4.34-1.082-6.511-7.214-2.173-6.131-5.239-22.026-6.515-30.294-1.447-9.379-2.171-34.625-2.171-34.625h9.771s.724 27.411 1.448 35.345ZM192.447 271.175c.724-7.935 1.447-35.345 1.447-35.345h9.769s-.724 25.246-2.172 34.624c-1.276 8.268-4.342 24.164-6.513 30.295-2.171 6.132-2.895 6.854-6.513 7.213-3.618.362-2.766-1.912-1.809-5.409 1.086-3.968 5.066-23.444 5.791-31.378ZM166.032 257.833c.572-6.256 1.142-24.609 1.358-32.099h9.754c-.25 7.122-.937 24.069-2.065 31.378-1.277 8.268-4.342 24.165-6.513 30.296-2.171 6.131-2.895 6.853-6.513 7.213-3.619.361-2.766-1.913-1.809-5.41 1.085-3.968 5.064-23.443 5.788-31.378Z" fill="#433431"/>
  <path d="M255.072 236.851c-3.436 2.393-53.567.939-53.567.939s-8.202.001-18.334-3.847-16.403-6.252-16.403-6.252-6.271-3.847 6.271-5.289c12.545-1.443 55 .48 55 .48s12.552 1.385 20.349 5.086c7.797 3.701 10.12 6.491 6.684 8.883Z" fill="#563E3E"/>
  <path d="M197.871 199.844s-35.679 6.19-36.655 19.161c-.733 9.752 3.26 6.002 11.057 5.262 7.797-.74 21.586-1.371 30.477.532 6.678 1.43 25.858 2.773 27.076-5.545 1.22-8.318-1.218-16.638-4.633-19.41-3.417-2.773-27.322 0-27.322 0Z" fill="#344163"/>
  <path d="M246.128 208.629s-1.338-19.946-1.301-23.023c.077-6.345 1.881-22.062 1.626-34.699-.341-17.185-6.761-20.962-13.989-23.672-7.227-2.71-18.219-.648-23.099.649-4.879 1.296-13.082 8.794-11.102 24.091 1.981 15.298 1.238 19.739 1.238 27.634 0 7.896-6.077 19.94-4.775 22.534.541 1.078 9.76 12.323 22.448 12.971 12.687.649 28.954-6.485 28.954-6.485Z" fill="#5F6775"/>
  <path d="M170.696 177.087s-3.678-6.544-10.019-7.791c-6.344-1.248-11.792 2.931-11.818 3.404-.005.104-.835.492-.979 1.418-.145.924.327 1.203.327 1.203s-1.377.577-1.318 1.684c.06 1.107.77 1.337.77 1.337s-1.115 1.867.146 2.05c1.092.159 1.636-.292 2.762-.399 1.421-.134 3.03-.01 4.111.216 1.931.402 2.76 2.821 5.04 3.161 3.7.555 7.263.625 8.856-.518 1.595-1.142 2.122-5.765 2.122-5.765Z" fill="#F5AA8A"/>
  <path d="M158.946 171.812s-5.618-1.104-9.581 1.037M158.558 174.799s-6.315-1.262-9.807.337M157.807 177.638s-6.236-1.279-9.727.32" stroke="#CB8469" stroke-width=".915" stroke-miterlimit="10" stroke-linecap="round" stroke-linejoin="round"/>
  <path d="m170.292 175.416-2.622 7.468s10.295 2.401 20.939 1.414c10.644-.987 17.278-2.044 19.555-6.908 2.277-4.864 4.611-25.527 3.961-33.309-.651-7.783-3.465-11.597-7.674-12.09-4.208-.493-7.426 8.883-8.168 15.791-.743 6.908-3.466 20.232-3.466 20.232s-8.911 2.467-12.376 3.454c-3.466.987-10.149 3.948-10.149 3.948ZM211.847 115.358l-1.207 12.437s3.713 1.727 8.912 1.234c5.198-.493 7.673-3.454 7.673-3.454l-2.569-10.987-12.809.77Z" fill="#F5AA8A"/>
  <path d="M201.415 104.952c.533-1.273.75-6.013 1.115-7.803 2.309-11.356 14.449-12.562 21.42-9.311 6.97 3.25 8.894 18.019 6.213 22.517-2.68 4.501-9.747 7.736-12.889 8.999-3.144 1.263-7.784 3.71-12.701 1.511-2.622-1.174-2.991-7.975-3.366-8.347-.835-.822-2.513-1.815-2.268-3.226 1.107-1.824 1.944-3.065 2.476-4.34Z" fill="#F5AA8A"/>
  <path d="M205.418 104.082c-.302-.686-1.09-.961-1.737-.607-.645.357-.931 1.223-.631 1.909.303.682 1.092.956 1.735.602.648-.354.933-1.221.633-1.904Z" fill="#481609"/>
  <path d="M206.831 102.445a.377.377 0 0 0 .291-.111.356.356 0 0 0 .092-.346c-.023-.086-.098-.139-.123-.215.116.35.029-.011-.091-.156-.23-.276-.666-.417-.989-.54-.99-.376-2.146-.497-3.176-.23-.77.201-.438 1.415.329 1.19.796-.234 1.587-.109 2.379.084.288.071.571.169.859.237.082.019.169.035.253.045.059.013.119.01.178-.009.21-.07.138-.09-.216-.06-.03-.116-.06-.231-.092-.346a.058.058 0 0 1-.005.014l.247-.246c-.01.004-.019.009-.029.012-.353.148-.317.644.093.677Z" fill="#954331"/>
  <path d="M238.117 124.095c-1.733-3.454-1.716-9.112-1.207-16.614.345-5.079-.826-8.775-1.62-10.64-.93-7.076-6.387-10.053-9.585-11.53-3.325-1.537-10.259-3.492-18.715 1.715-3.559 2.192-5.336 6.28-4.362 9.276.975 2.994 4.226 3.763 6.774 7.068 2.546 3.306.44 5.758 3.466 8.635.476.453.961.969 1.457 1.505-.156.971-.591 2.958-1.705 4.417-1.529 2.001-1.173 5.309-.41 8.06.764 2.751 2.292 6.002 1.783 8.253-.51 2.251-3.355 7.127-1.127 11.568 2.228 4.441 5.694 7.402 10.149 5.675 4.456-1.727 7.426-3.947 11.387-4.688 3.96-.74 8.9-2.855 9.653-7.648.756-4.795-4.206-11.598-5.938-15.052Z" fill="#954331"/>
  <path d="M210.867 108.276s1.259-5.153 4.724-2.193c3.465 2.961-.49 7.908-3.432 7.751-2.943-.157-1.292-5.558-1.292-5.558Z" fill="#F5AA8A"/>
  <path d="M201.729 114.472s1.876-.178 3.218-.74c1.531-.642 2.576-1.644 2.971-.987.742 1.234.742 4.688-3.466 4.688-2.734 0-2.723-2.961-2.723-2.961Z" fill="#fff"/>
  <path d="M255.815 236.852c6.271-1.443 5.996-11.084 6.479-24.068.481-12.984 4.823-44.241 7.236-53.378 2.414-9.136-3.821-10.677-7.719-11.541-3.549-.787-23.076.533-26.417.903-3.342.37-9.547 1.844-11.511 3.701-2.567 2.428-2.228 32.569-2.228 32.569l-3.713 45.892s0 6.662 12.996 6.292c12.995-.37 24.877-.37 24.877-.37ZM211.259 232.122c.101 0 .101-.157 0-.157s-.101.157 0 .157Z" fill="#563E3E"/>
  <path d="M218.078 229.252c1.734.118 3.464.278 5.193.437l3.583-44.281s-.34-30.141 2.228-32.569c1.963-1.857 8.168-3.331 11.51-3.701 2.568-.284 14.688-1.128 21.776-1.147l-.557-.126c-3.549-.787-23.076.533-26.417.903-3.342.37-9.547 1.844-11.511 3.701-2.567 2.428-2.228 32.569-2.228 32.569l-3.577 44.214Z" fill="#6E5550"/>
  <path d="M82.468 157.766c6.142 0 9.4.946 9.4.946 0 2.208-2.13 8.203-3.509 9.307-1.379 1.104-3.208 1.756-5.891 1.756-2.684 0-4.513-.652-5.892-1.756-1.378-1.104-3.51-7.099-3.51-9.307.002 0 3.262-.946 9.402-.946Z" fill="#FBFBFB"/>
  <path d="M91.658 158.948c0 .342-4.115.619-9.19.619-5.076 0-9.19-.277-9.19-.619 0-.342 4.114-.936 9.19-.936 5.075 0 9.19.594 9.19.936Z" fill="#EEE"/>
  <path d="M75.775 167.813c.605 0 .985-.094 1.023-.103l-.204-.874c-.017.004-1.93.455-4.082-.94-1.302-.844-2.167-2.075-2.26-3.212-.051-.646.16-1.207.612-1.626 1.256-1.162 2.837.141 2.853.154l.539-.702c-.743-.623-2.525-1.452-3.96-.127-.655.607-.975 1.45-.9 2.377.115 1.416 1.135 2.911 2.664 3.901 1.467.952 2.83 1.152 3.715 1.152Z" fill="#FBFBFB"/>
  <path d="M82.468 168.848c4.983 0 7.606-4.423 8.313-5.448-.725 2.053-1.673 4.03-2.407 4.618a49.162 49.162 0 0 0-1.613 1.338c.851.192 1.37.44 1.37.712 0 .605-2.536 1.096-5.663 1.096-3.127 0-5.662-.49-5.662-1.096 0-.272.517-.52 1.368-.712a49.587 49.587 0 0 0-1.612-1.338c-.734-.588-1.683-2.565-2.407-4.618.707 1.026 3.33 5.448 8.313 5.448Z" fill="#EEE"/>
  <path d="m32.534 153.324.055-19.677-16.417 1.207s-.352 24.272 4.976 28.709c0 0 4.662-.358 7.977-2.923 3.317-2.563 3.409-7.316 3.409-7.316Z" fill="#F5AA8A"/>
  <path d="M21.44 163.863c6.166 4.743 36.258 6.552 36.258 6.552l1.23-8.821s-17.838-10.223-22.04-11.897c-4.2-1.674-7.824-1.559-7.824-1.559s-4.718 1.194-6.449 3.848c-1.73 2.656-4.974 8.954-1.174 11.877Z" fill="#F5AA8A"/>
  <path d="M75.489 169.216c.138-1.358-1.04-.983-3.153-.899.167-.032.483-.099.483-.099s3.328-.204 3.41-2.333c.105-2.63-2.256-1.17-4.826-.897a5.276 5.276 0 0 1-.518.031 19.753 19.753 0 0 0 1.492-.262c2.519-.547 3.469-1.642 3.172-2.423-.884-2.333-2.019-1.079-4.591-.805-1.04.11-2.477-.123-3.813-.439.361-.256.902-.502 1.593-.388 2.27.372 4.063-1.285 3.325-2.229-.74-.941-4.57-2.451-8.146-1.109-3.577 1.341-7.276.886-9.064 4.183-1.542 2.847-1.855 5.768-.412 8.247 1.051 1.805 5.702 3.211 8.708 3.256 1.728.336 3.716.679 5.414.62 2.65-.093 3.879-.271 4.408-1.061.528-.789.124-1.074-.584-1.366a.148.148 0 0 1 .043-.008c1.36-.156 2.919-.66 3.059-2.019Z" fill="#F5AA8A"/>
  <path d="M66.324 164.558s2.447.484 5.078.43M65.244 168.019s4.187 1.064 7.574.199M64.625 170.87s3.662 1.431 7.803.366M64.914 160.612s2.487.994 5.056 1.121" stroke="#CB8469" stroke-width=".915" stroke-miterlimit="10" stroke-linecap="round" stroke-linejoin="round"/>
  <path d="M34.642 116.108s1.709 22.948.075 25.605c-1.637 2.655-19.575 3.848-21.514 1.947-1.938-1.9.418-3.817-.25-11.491-.789-9.015 2.259-19.268 6.839-22.629 8.967-6.589 15.072.03 14.85 6.568Z" fill="#5F6775"/>
  <path d="M34.259 114.539s2.058 2.408 1.164 7.389c-.893 4.983-2.361 9.911-2.126 12.525.238 2.615 1.687 5.944.947 7.259-.794 1.411-2.475 1.411-2.475 1.411" fill="#5F6775"/>
  <path d="M34.259 114.539s2.058 2.408 1.164 7.389c-.893 4.983-2.361 9.911-2.126 12.525.238 2.615 1.687 5.944.947 7.259-.794 1.411-2.475 1.411-2.475 1.411" stroke="#5F6DA2" stroke-width=".915" stroke-miterlimit="10"/>
  <path d="M30.941 136.37s-8.43-2.487-13.735-2.791l13.735 2.791Z" fill="#5F6775"/>
  <path d="M30.941 136.37s-8.43-2.487-13.735-2.791" stroke="#5F6DA2" stroke-width=".915" stroke-miterlimit="10"/>
</svg>
